<svg width="139" height="48" viewBox="0 0 139 48" fill="none" xmlns="http://www.w3.org/2000/svg">
<path d="M80.9813 4.95453C80.9439 4.99185 80.9066 4.97209 80.8715 4.97209C80.7968 4.97209 80.7222 4.97209 80.6498 4.99185C80.4654 5.00941 80.281 5.02917 80.0768 5.02917C79.8748 5.04673 79.6904 5.08405 79.506 5.1565L78.9155 5.37822C78.6016 5.47042 78.2876 5.58238 78.011 5.74703C77.5325 6.04339 77.0715 6.33756 76.6829 6.76125L76.2219 7.31446L75.8531 7.72059C75.6884 7.90499 75.5589 8.10915 75.4843 8.34844C75.4491 8.51528 75.3745 8.66236 75.2823 8.79189C75.1528 8.97629 75.0606 9.16069 75.0057 9.36266C74.8586 9.87855 74.7291 10.3944 74.6171 10.9125C74.5996 11.0421 74.582 11.1694 74.5996 11.2989C74.6171 11.4109 74.6369 11.5206 74.6369 11.6501C74.6369 11.9443 74.6544 12.2407 74.6742 12.5348C74.6918 12.8861 74.7664 13.2176 74.8762 13.5491C74.9684 13.863 75.0979 14.1769 75.2077 14.4908C75.2823 14.7477 75.4118 14.9694 75.5413 15.2087C75.5765 15.3009 75.6335 15.3931 75.706 15.4677C75.9453 15.7444 76.167 16.0034 76.426 16.2602L76.6653 16.5193C76.8322 16.741 77.0341 16.9254 77.2932 17.0352C77.4029 17.0901 77.5149 17.1647 77.6247 17.2569C77.8266 17.4237 78.0484 17.5708 78.3074 17.6806C78.4918 17.7552 78.6762 17.8474 78.8408 17.9396C79.3941 18.2162 79.967 18.3458 80.5576 18.4006L81.3501 18.438C81.6815 18.4731 82.0328 18.4731 82.3643 18.4731C82.4192 18.4731 82.4762 18.4555 82.5311 18.4555C82.7155 18.4182 82.8999 18.3809 83.0843 18.3633C83.3609 18.3084 83.6375 18.2887 83.9142 18.1965C84.1732 18.124 84.43 18.0692 84.6518 17.9199C84.7989 17.8474 84.9459 17.7728 85.1128 17.7355C85.2972 17.6806 85.4991 17.6257 85.666 17.5159C85.8131 17.4413 85.9426 17.3491 86.0721 17.2393C86.3114 17.0527 86.4585 16.8135 86.5156 16.5369C86.5507 16.4271 86.5331 16.3151 86.5507 16.2054C86.5704 15.9288 86.588 15.6522 86.5704 15.3755C86.5507 15.3382 86.5507 15.3009 86.5507 15.2658C86.5331 15.1165 86.4958 14.9694 86.5507 14.8223C86.6078 14.6379 86.6078 14.4535 86.6078 14.2494C86.588 13.9728 86.6253 13.6962 86.6802 13.4195C86.7351 13.0705 86.8097 12.7193 86.9766 12.4053L87.0863 12.1485L87.1412 11.9443C87.1412 11.7972 87.1039 11.7226 86.9568 11.705C86.8844 11.6875 86.8097 11.6677 86.7351 11.6677C86.2192 11.6677 85.7033 11.6875 85.1874 11.6501C84.8911 11.6304 84.5969 11.6677 84.3005 11.6677C83.8768 11.6875 83.4334 11.6677 83.0097 11.6677C82.9175 11.6677 82.8253 11.6677 82.7528 11.705C82.6606 11.7226 82.6409 11.7599 82.6233 11.8521C82.6233 11.9268 82.6409 11.9816 82.6606 12.0365C82.7528 12.2407 82.788 12.4426 82.845 12.6446L83.0646 13.4766C83.1019 13.661 83.1217 13.863 83.1392 14.065C83.1941 14.3789 83.1941 14.6753 83.1568 14.9694C83.1217 15.1736 83.1019 15.358 83.1217 15.5599C83.1392 15.7268 83.1392 15.8914 83.1392 16.0583C83.1392 16.2976 83.047 16.4271 82.8077 16.4995C82.4938 16.5742 82.1623 16.6291 81.8308 16.6488C81.6815 16.6664 81.552 16.6488 81.4247 16.6291C81.2579 16.6115 81.1108 16.5917 80.9637 16.5369C80.63 16.3898 80.3183 16.2427 80.0417 16.0385C79.9297 15.9661 79.8375 15.8739 79.7453 15.7619L79.3589 15.3009C79.045 14.9145 78.8408 14.4711 78.7311 13.9728C78.6938 13.7708 78.6564 13.5864 78.584 13.402C78.5642 13.3098 78.5467 13.2351 78.5094 13.1429C78.4172 12.7017 78.4172 12.2582 78.3798 11.8148C78.3798 11.6875 78.3996 11.5382 78.3996 11.4109C78.3996 11.0596 78.4545 10.7281 78.5094 10.3944C78.5642 10.0827 78.6938 9.78635 78.7684 9.49218C78.8408 9.23314 78.9528 8.99385 79.0077 8.75457C79.0626 8.55041 79.1745 8.38576 79.3019 8.25624C79.4687 8.0894 79.6158 7.90499 79.7453 7.70303C79.8002 7.59107 79.8924 7.49886 80.0044 7.42642C80.2985 7.2047 80.63 7.05761 80.9813 6.92809C81.1283 6.87321 81.2754 6.85345 81.4423 6.85345H82.1799C82.3094 6.85345 82.4389 6.87321 82.5487 6.91053C82.788 6.98297 83.0295 7.09493 83.249 7.16738C83.4158 7.22226 83.5827 7.2969 83.71 7.3891L83.9888 7.59107C84.5222 7.95987 84.9833 8.40332 85.3521 8.95653C85.3894 9.01142 85.4267 9.04874 85.4816 9.08605C85.6287 9.19582 85.7209 9.16069 85.7406 8.97629V8.95653C85.7582 8.77213 85.7582 8.60748 85.7209 8.42308C85.6836 8.23648 85.6484 8.07183 85.666 7.88743C85.6836 7.72059 85.6836 7.55594 85.6836 7.40666C85.666 7.09493 85.6287 6.79857 85.6287 6.5044C85.6484 6.22779 85.6287 5.93143 85.6287 5.65482C85.6287 5.58238 85.6287 5.50774 85.6111 5.4331C85.5914 5.30577 85.5189 5.28602 85.4267 5.3409L85.2225 5.50774C85.0755 5.63726 84.9108 5.70971 84.7067 5.72946C84.5222 5.74703 84.3378 5.74703 84.1534 5.72946C83.9317 5.70971 83.71 5.63726 83.5256 5.5253C83.4158 5.45286 83.3061 5.39798 83.1941 5.3409C82.9373 5.2487 82.6409 5.19381 82.384 5.13893C82.0701 5.06429 81.7562 5.04673 81.4598 4.99185C81.3501 4.97209 81.2403 4.99185 81.1481 4.95453H80.9813Z" fill="white"/>
<path d="M100.362 18.1965C100.601 18.1965 100.843 18.1965 101.082 18.2163C101.137 18.2163 101.212 18.1965 101.267 18.1789C101.339 18.1416 101.359 18.1043 101.321 18.0319C101.304 17.9572 101.267 17.9023 101.229 17.865C101.12 17.7355 101.008 17.6082 100.878 17.4962C100.694 17.3316 100.529 17.1274 100.399 16.9254C100.307 16.7586 100.178 16.5918 100.048 16.4447C99.9384 16.2976 99.8462 16.1681 99.7716 16.0034C99.6421 15.6522 99.4577 15.3207 99.293 14.9892C99.1811 14.8026 99.0713 14.6379 99.034 14.4535C98.9791 14.2143 98.8693 14.0101 98.7398 13.7884C98.6476 13.6237 98.573 13.4393 98.5554 13.2352C98.5554 12.941 98.6652 12.7017 98.832 12.4602C98.9045 12.3505 98.9967 12.2407 99.0713 12.1112C99.1811 11.9268 99.3106 11.7424 99.4401 11.558C99.5696 11.3911 99.6992 11.2067 99.7914 11.0223L100.123 10.1925C100.16 10.0827 100.197 9.97077 100.215 9.86101C100.252 9.6766 100.27 9.4922 100.29 9.3078C100.307 9.06851 100.27 8.84678 100.252 8.6075C100.252 8.47798 100.215 8.34845 100.16 8.21893C100.068 8.05209 99.9933 7.86769 99.9187 7.68328L99.7716 7.33423C99.607 7.03787 99.4028 6.76126 99.1811 6.48466C99.0164 6.26513 98.8123 6.07853 98.573 5.96877C98.5357 5.96877 98.5005 5.9512 98.4808 5.93145C97.9649 5.63728 97.449 5.39799 96.8585 5.32335C96.6192 5.28603 96.3777 5.26847 96.1582 5.30579C95.954 5.32335 95.7323 5.32335 95.5303 5.30579C95.3086 5.26847 95.0869 5.26847 94.8849 5.28603C94.6632 5.32335 94.4612 5.32335 94.2395 5.26847C94.1473 5.24871 94.0353 5.23115 93.9431 5.24871C93.7038 5.24871 93.4646 5.30579 93.2253 5.28603C93.2055 5.28603 93.1879 5.30579 93.1879 5.30579C92.9838 5.32335 92.7643 5.32335 92.5601 5.30579C92.3955 5.28603 92.211 5.26847 92.0442 5.26847H91.1595C90.9005 5.24871 90.6787 5.21359 90.4219 5.23115L89.9236 5.28603C89.6645 5.34091 89.6096 5.43312 89.6843 5.6746C89.8116 6.04341 89.8862 6.41221 89.9609 6.78102C90.0333 7.13007 90.0531 7.48132 90.1453 7.83256C90.1804 7.99721 90.1628 8.18161 90.1628 8.34846C90.1453 8.55042 90.108 8.75458 90.1255 8.95655C90.1628 9.17827 90.1628 9.4 90.1628 9.63928C90.1628 9.86101 90.2002 10.1003 90.1628 10.3396C90.1453 10.4318 90.1255 10.5064 90.1255 10.5986C90.1453 10.985 90.1453 11.3911 90.1453 11.7797C90.1453 11.9817 90.1453 12.1836 90.1255 12.3878C90.108 12.5173 90.0882 12.6446 90.108 12.7741C90.108 12.8861 90.1255 13.0156 90.1255 13.1254C90.1453 13.2176 90.1628 13.3098 90.1453 13.402C90.1255 13.5491 90.1453 13.6962 90.1453 13.8454C90.1255 13.9925 90.1453 14.1572 90.1255 14.3065C90.0882 14.5084 90.0706 14.7104 90.108 14.897C90.1628 15.3009 90.1453 15.6895 90.108 16.0759C90.0531 16.6115 89.8862 17.1098 89.7194 17.6257L89.6096 17.9397C89.5921 18.0692 89.647 18.1416 89.7765 18.1789C89.8862 18.2163 89.996 18.2163 90.108 18.1965C90.3473 18.1789 90.6063 18.1789 90.8456 18.1965C91.03 18.2163 91.2144 18.2163 91.3988 18.1965C91.5832 18.1789 91.7676 18.1614 91.952 18.1614C92.0618 18.1789 92.154 18.1789 92.2659 18.1789H93.4448C93.5743 18.1789 93.7038 18.1614 93.8334 18.1614C93.8707 18.1614 93.9256 18.1416 93.9804 18.1241C94.0924 18.0867 94.1275 18.0121 94.0924 17.9199C94.0924 17.8277 94.0551 17.7355 94.0178 17.663L93.8509 17.2394C93.7038 16.9057 93.6314 16.5742 93.5743 16.2054C93.5568 16.021 93.5568 15.819 93.5568 15.6148C93.5743 15.4129 93.5743 15.2285 93.5568 15.0243C93.5568 14.8399 93.5392 14.6555 93.5743 14.4711C93.5941 14.3065 93.5941 14.1221 93.5743 13.9552C93.5568 13.7708 93.5568 13.5688 93.5568 13.3647C93.5743 13.2 93.649 13.0705 93.8509 13.0508C94.0726 13.0156 94.2944 13.0156 94.5161 13.0332C94.6083 13.0508 94.6807 13.0705 94.7554 13.1078C94.8651 13.1803 94.9025 13.2922 94.9573 13.402C95.032 13.5688 95.1066 13.7335 95.234 13.8806C95.3635 14.0474 95.4754 14.2494 95.5303 14.4711C95.5852 14.6753 95.6774 14.8597 95.7696 15.0243C95.8991 15.2285 96.0089 15.4304 96.0462 15.6697C96.066 15.7619 96.1011 15.8541 96.1384 15.9463C96.2131 16.1307 96.3053 16.3151 96.3601 16.5369C96.4348 16.9254 96.527 17.3118 96.5819 17.7179C96.5994 17.977 96.7114 18.0867 96.9682 18.1241C97.0429 18.1416 97.1351 18.1614 97.2273 18.1614C97.6685 18.1789 98.112 18.1416 98.5554 18.1416H98.8869C99.0164 18.1241 99.146 18.1241 99.2557 18.1416C99.4577 18.1965 99.6794 18.2163 99.8836 18.2163C100.048 18.1965 100.197 18.1965 100.362 18.1965ZM93.5743 10.1179C93.6116 9.82369 93.5568 9.50976 93.5568 9.17827C93.5568 9.03119 93.5743 8.90167 93.5941 8.77215C93.6116 8.47798 93.5941 8.20137 93.5941 7.92477C93.5743 7.68328 93.5941 7.444 93.7038 7.22227C93.7785 7.07519 93.8882 7.00275 94.0551 6.98299C94.4041 6.94567 94.7378 6.98299 95.0869 6.96543C95.2164 6.96543 95.3459 6.96543 95.4754 7.00275C95.6972 7.07519 95.8618 7.20471 95.9913 7.38912C96.1933 7.6284 96.3228 7.90501 96.3777 8.21893L96.5072 9.03119C96.527 9.21559 96.4897 9.38024 96.4897 9.54708C96.4348 10.0454 96.2306 10.4867 95.9738 10.9125C95.8069 11.2265 95.5303 11.3736 95.1615 11.3736C94.9771 11.3736 94.7927 11.3362 94.6083 11.3187H94.0178C93.8158 11.3187 93.7236 11.2616 93.6665 11.0772C93.6116 10.9301 93.5743 10.7655 93.5743 10.5986V10.1179Z" fill="white"/>
<path d="M107.849 7.6284C107.849 7.51863 107.866 7.42643 107.903 7.31447C107.958 7.14982 108.068 7.0203 108.252 7.00274C108.345 6.98298 108.437 6.96542 108.549 6.96542C108.806 6.96542 109.082 6.98298 109.341 6.94566C109.471 6.9281 109.6 6.94566 109.728 6.94566C109.987 6.96542 110.263 7.0203 110.522 7.03786C110.744 7.03786 110.946 7.1125 111.13 7.22227L111.425 7.37155C111.591 7.44399 111.739 7.53619 111.886 7.6284C112.015 7.7206 112.127 7.8128 112.219 7.92476C112.441 8.14429 112.661 8.34845 112.865 8.58773C112.92 8.67994 112.994 8.75458 113.067 8.82702C113.086 8.86434 113.122 8.90166 113.159 8.8841C113.214 8.8841 113.214 8.82702 113.214 8.7919V8.60749C113.196 8.33089 113.179 8.05209 113.179 7.77548C113.196 7.57351 113.179 7.35179 113.141 7.14982L113.067 6.63393C113.067 6.50441 113.049 6.35733 113.012 6.20805C112.957 6.02364 112.865 5.859 112.698 5.72947C112.606 5.67459 112.513 5.59995 112.404 5.54507C112.257 5.47043 112.107 5.41555 111.943 5.39799C111.666 5.36067 111.37 5.34091 111.093 5.34091C110.817 5.32335 110.522 5.30578 110.226 5.30578H109.785C109.563 5.26846 109.341 5.26846 109.139 5.28603C108.918 5.30578 108.696 5.30578 108.474 5.26846C108.29 5.24871 108.105 5.23114 107.921 5.24871C107.811 5.26846 107.699 5.28603 107.589 5.28603H106.52L105.726 5.24871C105.541 5.23114 105.357 5.23114 105.172 5.24871C104.916 5.28603 104.674 5.28603 104.435 5.28603C104.325 5.28603 104.213 5.30578 104.103 5.34091C103.994 5.39799 103.919 5.47043 103.919 5.59995C103.919 5.70972 103.937 5.80192 103.974 5.89412L104.158 6.37489C104.343 6.91054 104.417 7.46375 104.435 8.03452V8.95654C104.38 9.36267 104.38 9.7688 104.38 10.1749C104.362 10.3945 104.398 10.6359 104.398 10.8577V10.9125C104.455 11.2067 104.455 11.5031 104.398 11.7972C104.38 11.8346 104.38 11.8719 104.38 11.907C104.38 12.8861 104.398 13.8806 104.38 14.8772C104.38 15.2285 104.398 15.5973 104.362 15.9463C104.343 16.1878 104.325 16.4073 104.288 16.6291C104.25 16.9057 104.158 17.1647 104.029 17.404C103.956 17.5335 103.919 17.6806 103.919 17.8474C103.937 17.9396 103.974 18.0121 104.048 18.0692C104.178 18.1416 104.305 18.1614 104.455 18.1614C104.731 18.1241 104.988 18.1241 105.265 18.1614C105.431 18.1965 105.579 18.2163 105.745 18.1965C105.985 18.1614 106.224 18.1241 106.483 18.1416C106.722 18.1416 106.981 18.1241 107.238 18.1614C107.46 18.1789 107.682 18.1614 107.921 18.1614C108.143 18.1614 108.364 18.1416 108.586 18.1614C108.751 18.1789 108.918 18.1965 109.082 18.1965C109.396 18.1965 109.71 18.1789 110.042 18.1789C110.283 18.1789 110.522 18.1789 110.762 18.1416C110.891 18.1241 111.038 18.1043 111.168 18.1241C111.389 18.1416 111.609 18.1416 111.813 18.1043C112.09 18.0494 112.349 17.977 112.625 17.9572C112.92 17.9199 113.141 17.7728 113.288 17.516C113.363 17.3864 113.398 17.2394 113.436 17.1098C113.51 16.7213 113.473 16.3525 113.51 15.9661C113.547 15.7444 113.547 15.5226 113.565 15.3009C113.583 15.0989 113.602 14.897 113.602 14.7104C113.602 14.6555 113.62 14.5633 113.547 14.5457C113.473 14.526 113.436 14.6006 113.418 14.6379C113.214 14.897 112.994 15.1538 112.773 15.3756C112.384 15.7619 111.905 16.0385 111.407 16.2603C111.038 16.4073 110.652 16.4447 110.246 16.482C109.895 16.4995 109.526 16.4447 109.157 16.4447H109.12C108.898 16.4073 108.678 16.4447 108.457 16.4644C108.198 16.4995 107.996 16.3898 107.903 16.1505C107.866 16.0385 107.829 15.9288 107.829 15.819C107.829 15.4678 107.811 15.1165 107.866 14.7675C107.903 14.6006 107.884 14.4535 107.866 14.3065C107.791 13.9925 107.791 13.6786 107.903 13.3844C107.958 13.2 107.976 13.0156 108.05 12.8312C108.125 12.6271 108.272 12.5524 108.494 12.5897C108.621 12.6271 108.771 12.6819 108.898 12.739C109.396 12.9037 109.857 13.1254 110.301 13.402C110.356 13.4393 110.41 13.4766 110.467 13.4942C110.56 13.5315 110.615 13.4942 110.632 13.402C110.669 13.2922 110.687 13.1803 110.669 13.0507L110.632 12.48C110.615 12.3329 110.632 12.166 110.652 12.019C110.669 11.6875 110.652 11.3538 110.669 11.0421C110.687 10.7457 110.669 10.4691 110.669 10.1925C110.669 10.1178 110.669 10.063 110.652 10.0081C110.615 9.93344 110.56 9.89832 110.485 9.91588L110.356 9.97076C110.024 10.1925 109.71 10.3769 109.359 10.5437C109.102 10.6733 108.825 10.783 108.529 10.8379C108.272 10.8928 108.125 10.8203 108.033 10.5613C107.921 10.2671 107.903 9.93344 107.884 9.62171C107.866 9.34511 107.829 9.08606 107.849 8.80946V7.6284Z" fill="white"/>
<path d="M119.779 7.6284C119.779 7.51863 119.796 7.42643 119.834 7.31447C119.888 7.14982 119.998 7.0203 120.183 7.00274C120.275 6.98298 120.367 6.96542 120.479 6.96542C120.736 6.96542 121.012 6.98298 121.271 6.94566C121.401 6.9281 121.531 6.94566 121.658 6.94566C121.917 6.96542 122.193 7.0203 122.453 7.03786C122.674 7.03786 122.876 7.1125 123.061 7.22227L123.355 7.37155C123.522 7.44399 123.669 7.53619 123.816 7.6284C123.945 7.7206 124.057 7.8128 124.149 7.92476C124.371 8.14429 124.591 8.34845 124.795 8.58773C124.85 8.67994 124.924 8.75458 124.997 8.82702C125.017 8.86434 125.052 8.90166 125.089 8.8841C125.144 8.8841 125.144 8.82702 125.144 8.7919V8.60749C125.126 8.33089 125.109 8.05209 125.109 7.77548C125.126 7.57351 125.109 7.35179 125.072 7.14982L124.997 6.63393C124.997 6.50441 124.979 6.35733 124.942 6.20805C124.887 6.02364 124.795 5.859 124.628 5.72947C124.536 5.67459 124.444 5.59995 124.334 5.54507C124.187 5.47043 124.038 5.41555 123.873 5.39799C123.596 5.36067 123.3 5.34091 123.023 5.34091C122.747 5.32335 122.453 5.30578 122.156 5.30578H121.715C121.493 5.26846 121.271 5.26846 121.07 5.28603C120.848 5.30578 120.626 5.30578 120.404 5.26846C120.22 5.24871 120.036 5.23114 119.851 5.24871C119.741 5.26846 119.629 5.28603 119.52 5.28603H118.451L117.656 5.24871C117.471 5.23114 117.287 5.23114 117.103 5.24871C116.846 5.28603 116.604 5.28603 116.365 5.28603C116.255 5.28603 116.143 5.30578 116.034 5.34091C115.924 5.39799 115.849 5.47043 115.849 5.59995C115.849 5.70972 115.867 5.80192 115.904 5.89412L116.088 6.37489C116.273 6.91054 116.347 7.46375 116.365 8.03452V8.95654C116.31 9.36267 116.31 9.7688 116.31 10.1749C116.293 10.3945 116.328 10.6359 116.328 10.8577V10.9125C116.385 11.2067 116.385 11.5031 116.328 11.7972C116.31 11.8346 116.31 11.8719 116.31 11.907C116.31 12.8861 116.328 13.8806 116.31 14.8772C116.31 15.2285 116.328 15.5973 116.293 15.9463C116.273 16.1878 116.255 16.4073 116.218 16.6291C116.181 16.9057 116.088 17.1647 115.959 17.404C115.886 17.5335 115.849 17.6806 115.849 17.8474C115.867 17.9396 115.904 18.0121 115.979 18.0692C116.108 18.1416 116.235 18.1614 116.385 18.1614C116.661 18.1241 116.918 18.1241 117.195 18.1614C117.362 18.1965 117.509 18.2163 117.676 18.1965C117.915 18.1614 118.154 18.1241 118.413 18.1416C118.652 18.1416 118.912 18.1241 119.168 18.1614C119.39 18.1789 119.612 18.1614 119.851 18.1614C120.073 18.1614 120.295 18.1416 120.516 18.1614C120.681 18.1789 120.848 18.1965 121.012 18.1965C121.326 18.1965 121.64 18.1789 121.972 18.1789C122.213 18.1789 122.453 18.1789 122.692 18.1416C122.821 18.1241 122.968 18.1043 123.098 18.1241C123.32 18.1416 123.539 18.1416 123.743 18.1043C124.02 18.0494 124.279 17.977 124.556 17.9572C124.85 17.9199 125.072 17.7728 125.219 17.516C125.293 17.3864 125.328 17.2394 125.366 17.1098C125.44 16.7213 125.403 16.3525 125.44 15.9661C125.478 15.7444 125.478 15.5226 125.495 15.3009C125.513 15.0989 125.533 14.897 125.533 14.7104C125.533 14.6555 125.55 14.5633 125.478 14.5457C125.403 14.526 125.366 14.6006 125.348 14.6379C125.144 14.897 124.924 15.1538 124.703 15.3756C124.314 15.7619 123.836 16.0385 123.337 16.2603C122.968 16.4073 122.582 16.4447 122.176 16.482C121.825 16.4995 121.456 16.4447 121.087 16.4447H121.05C120.828 16.4073 120.608 16.4447 120.387 16.4644C120.128 16.4995 119.926 16.3898 119.834 16.1505C119.796 16.0385 119.759 15.9288 119.759 15.819C119.759 15.4678 119.741 15.1165 119.796 14.7675C119.834 14.6006 119.814 14.4535 119.796 14.3065C119.722 13.9925 119.722 13.6786 119.834 13.3844C119.888 13.2 119.906 13.0156 119.981 12.8312C120.055 12.6271 120.202 12.5524 120.424 12.5897C120.551 12.6271 120.701 12.6819 120.828 12.739C121.326 12.9037 121.787 13.1254 122.231 13.402C122.286 13.4393 122.341 13.4766 122.398 13.4942C122.49 13.5315 122.545 13.4942 122.562 13.402C122.6 13.2922 122.617 13.1803 122.6 13.0507L122.562 12.48C122.545 12.3329 122.562 12.166 122.582 12.019C122.6 11.6875 122.582 11.3538 122.6 11.0421C122.617 10.7457 122.6 10.4691 122.6 10.1925C122.6 10.1178 122.6 10.063 122.582 10.0081C122.545 9.93344 122.49 9.89832 122.415 9.91588L122.286 9.97076C121.954 10.1925 121.64 10.3769 121.289 10.5437C121.032 10.6733 120.756 10.783 120.459 10.8379C120.202 10.8928 120.055 10.8203 119.963 10.5613C119.851 10.2671 119.834 9.93344 119.814 9.62171C119.796 9.34511 119.759 9.08606 119.779 8.80946V7.6284Z" fill="white"/>
<path d="M136.927 5.26851C136.688 5.24875 136.449 5.26851 136.209 5.30583C136.172 5.30583 136.117 5.30583 136.08 5.32339C135.988 5.36071 135.968 5.39803 135.988 5.49023C135.988 5.52536 136.005 5.56267 136.025 5.58243C136.08 5.74708 136.152 5.8766 136.209 6.02369C136.337 6.28273 136.429 6.54177 136.449 6.81838C136.466 7.07523 136.504 7.33427 136.541 7.59112C136.596 7.85016 136.613 8.12677 136.578 8.40337C136.541 8.55046 136.541 8.69974 136.558 8.84682C136.578 9.08611 136.613 9.32539 136.613 9.56468C136.596 9.97081 136.613 10.3945 136.613 10.8006C136.613 10.8577 136.613 10.8928 136.596 10.9499C136.541 11.2441 136.541 11.558 136.541 11.8522C136.541 12.0563 136.541 12.2583 136.486 12.4603C136.486 12.5349 136.466 12.6095 136.394 12.6447C136.319 12.6644 136.264 12.6095 136.209 12.5525C136.025 12.3505 135.876 12.1288 135.729 11.8895C135.544 11.558 135.342 11.2441 135.138 10.9301L134.789 10.4318C134.585 10.0454 134.363 9.65688 134.144 9.28807C133.994 9.03123 133.847 8.77218 133.663 8.5329C133.369 8.16409 133.127 7.77552 132.908 7.35183C132.796 7.13011 132.666 6.92814 132.502 6.72618L132.225 6.35737C132.041 6.13564 131.856 5.91392 131.634 5.70976C131.45 5.56268 131.228 5.45291 130.989 5.39803C130.822 5.36071 130.658 5.34095 130.491 5.32339C130.232 5.28607 129.992 5.26851 129.735 5.28607C129.569 5.30583 129.384 5.32339 129.217 5.32339C129.108 5.34095 129.015 5.30583 128.903 5.30583C128.647 5.30583 128.407 5.28607 128.148 5.26851C127.981 5.24875 127.834 5.24875 127.67 5.26851C127.52 5.28607 127.466 5.36071 127.503 5.49023C127.52 5.56268 127.54 5.63732 127.578 5.70976L127.67 5.98637C127.742 6.26517 127.817 6.54177 127.927 6.81838C127.981 6.94571 128.019 7.11255 128.039 7.25963L128.093 7.68332C128.111 7.9248 128.111 8.14433 128.074 8.38581C128.039 8.49558 128.039 8.60754 128.039 8.7173C128.039 8.82706 128.056 8.93902 128.056 9.06855C128.056 9.28807 128.074 9.5098 128.039 9.73152C128.001 10.0257 128.019 10.3023 128.019 10.5811C128.019 10.7457 128.039 10.9126 128.056 11.0772C128.093 11.2068 128.093 11.3187 128.093 11.446V11.9444C128.093 12.1112 128.074 12.2583 128.056 12.4251C128.019 12.5722 128.001 12.7193 128.019 12.8664C128.056 13.0881 128.093 13.3274 128.074 13.5689C128.074 13.604 128.074 13.6413 128.093 13.6786C128.111 13.9179 128.111 14.177 128.074 14.4163C128.056 14.5458 128.039 14.6753 128.039 14.8026C128.039 14.9322 128.056 15.0617 128.056 15.2088C128.056 15.4854 128.039 15.7817 128.019 16.0583C127.964 16.5567 127.854 17.0352 127.632 17.4962C127.558 17.6433 127.485 17.7926 127.448 17.9573C127.428 18.0495 127.466 18.1043 127.558 18.1417C127.578 18.1417 127.595 18.1614 127.632 18.1614C127.817 18.1614 128.019 18.2163 128.223 18.1965C128.333 18.1965 128.425 18.1965 128.517 18.179C128.756 18.179 128.996 18.1614 129.217 18.1614H129.292C129.569 18.1241 129.828 18.1417 130.104 18.179C130.177 18.179 130.269 18.1965 130.361 18.179C130.508 18.1417 130.546 18.0868 130.508 17.9397L130.473 17.8475C130.436 17.7553 130.398 17.6433 130.344 17.5511C130.232 17.3316 130.122 17.0901 130.067 16.8333C129.992 16.5918 129.937 16.3525 129.92 16.0957V15.3383C129.937 15.1166 129.955 14.897 129.92 14.6753C129.92 14.526 129.883 14.3614 129.9 14.2143C129.9 14.065 129.9 13.9179 129.92 13.7708V13.2176C129.92 13.0332 129.92 12.8313 129.883 12.6271C129.845 12.4427 129.845 12.2583 129.883 12.0739C129.92 11.8719 129.955 11.6678 129.937 11.4834C129.9 11.1519 129.92 10.8204 129.937 10.5065C129.955 10.4143 129.975 10.3221 130.012 10.2474C130.047 10.1376 130.104 10.1179 130.214 10.175C130.251 10.2101 130.289 10.2299 130.306 10.2672L130.565 10.5065C130.693 10.636 130.805 10.7831 130.897 10.9301C131.081 11.2265 131.266 11.5207 131.413 11.8346C131.56 12.1288 131.764 12.3505 131.929 12.6271C132.058 12.8488 132.243 13.0508 132.335 13.3098C132.39 13.4394 132.427 13.5689 132.519 13.6786C132.704 13.9728 132.888 14.2867 133.092 14.5633C133.184 14.6929 133.276 14.8399 133.331 14.9892C133.424 15.1912 133.533 15.3932 133.663 15.56C133.922 15.9112 134.106 16.2801 134.328 16.6291C134.493 16.8882 134.64 17.1472 134.861 17.3316C134.991 17.4238 135.101 17.5511 135.193 17.6631L135.377 17.8848C135.507 17.9946 135.654 18.0495 135.821 18.0692C135.95 18.1043 136.08 18.0868 136.209 18.1043C136.466 18.1417 136.725 18.179 136.982 18.1614C137.019 18.1614 137.057 18.1614 137.094 18.179C137.259 18.1965 137.443 18.179 137.61 18.1417C137.904 18.0692 138.089 17.8848 138.183 17.5709C138.255 17.2943 138.293 17.0177 138.367 16.7411C138.402 16.6291 138.422 16.5193 138.402 16.4074C138.385 16.1308 138.367 15.8542 138.385 15.5776C138.385 14.9892 138.367 14.4163 138.385 13.8257C138.422 13.1803 138.367 12.5349 138.44 11.8895V11.6129C138.402 11.4109 138.422 11.2068 138.422 11.0048C138.44 10.7831 138.46 10.5613 138.422 10.3396C138.367 10.1003 138.367 9.84129 138.422 9.602C138.46 9.47248 138.477 9.36271 138.46 9.23319C138.422 9.01147 138.385 8.77218 138.402 8.55046V8.20141C138.402 8.03457 138.402 7.85016 138.44 7.68332L138.514 6.9457C138.514 6.72618 138.552 6.4847 138.644 6.26517L138.901 5.6922C138.921 5.6 138.975 5.52536 138.975 5.45291C138.975 5.36071 138.956 5.34095 138.883 5.30583L138.699 5.26851C138.422 5.23119 138.146 5.23119 137.869 5.24875C137.74 5.26851 137.592 5.28607 137.443 5.28607C137.278 5.26851 137.094 5.26851 136.927 5.26851Z" fill="white"/>
<path d="M85.8252 37.6101C85.8603 37.8121 85.9174 38.0338 85.8976 38.2358C85.8976 38.4026 85.9174 38.5694 85.935 38.7341C86.0096 39.0678 86.1369 39.3619 86.2291 39.6759C86.3235 39.9152 86.4333 40.1544 86.5628 40.3762C86.6353 40.4859 86.7099 40.6154 86.7472 40.7647C86.8394 41.0765 87.0238 41.3179 87.2082 41.5748C87.3926 41.8338 87.6319 42.0182 87.8339 42.2575C88.1851 42.6263 88.5913 42.9578 89.0523 43.2169C89.5506 43.4935 90.0489 43.7525 90.5824 43.8996C90.8041 43.9545 91.0258 44.0291 91.2651 44.0642C91.6339 44.1213 92.0027 44.1389 92.3913 44.1564C92.6481 44.1564 92.9247 44.1564 93.2014 44.1213C93.5153 44.084 93.8292 44.0291 94.1431 43.9545C94.6415 43.8623 95.1025 43.7152 95.5086 43.4013C95.6008 43.3266 95.7281 43.2717 95.8576 43.2169C96.0794 43.1247 96.2813 43.0149 96.4482 42.8305C96.5777 42.701 96.7248 42.5714 96.8719 42.4595C97.1485 42.2575 97.39 42.0182 97.6095 41.7789C97.6841 41.7043 97.739 41.6494 97.7763 41.5572C97.9234 41.2609 98.1276 40.9667 98.312 40.6901L98.4766 40.3762C98.6435 39.9898 98.773 39.6012 98.9003 39.1951C99.0123 38.846 99.0847 38.4772 99.122 38.1084C99.122 37.9965 99.122 37.8669 99.1418 37.7572C99.1594 37.5728 99.1594 37.4059 99.1418 37.2413L99.0672 36.7254C99.0496 36.4488 99.0123 36.17 98.9376 35.8934C98.8827 35.6541 98.8081 35.4148 98.7357 35.1755C98.6435 34.7694 98.4964 34.383 98.2747 34.0318C98.1627 33.8649 98.0354 33.7179 97.9607 33.551C97.7939 33.2393 97.5919 32.9627 97.3153 32.741L97.1309 32.5368C96.9641 32.3524 96.7797 32.168 96.5579 32.0407C96.0618 31.6894 95.5262 31.3931 94.9729 31.1538C94.7337 31.044 94.4746 30.932 94.2156 30.8969C93.9038 30.8596 93.6075 30.785 93.3309 30.6752C93.1838 30.6379 93.0367 30.6203 92.8896 30.6554C92.6481 30.6928 92.4089 30.6928 92.1871 30.6752C92.0225 30.6554 91.8556 30.6752 91.7086 30.6928C91.4693 30.7301 91.2475 30.785 91.0258 30.8398C90.6197 30.932 90.2136 31.0616 89.8272 31.2284C89.5308 31.3755 89.2542 31.5423 88.9776 31.6697C88.7932 31.7619 88.6286 31.9111 88.4793 32.0407C88.352 32.168 88.2027 32.2975 88.0556 32.4095C87.9261 32.5368 87.779 32.6663 87.6692 32.7958C87.2631 33.2942 86.8943 33.7925 86.5804 34.3457C86.4333 34.6223 86.2862 34.9165 86.2116 35.2129L86.1369 35.4895C86.0272 35.8583 85.9525 36.2271 85.935 36.6134C85.9174 36.8176 85.8801 37.0371 85.8252 37.2215V37.6101ZM95.3966 37.3511C95.4164 37.5179 95.3966 37.6474 95.3593 37.7747C95.2869 37.9965 95.2869 38.2358 95.3044 38.4575C95.3044 38.7165 95.2671 38.9558 95.1749 39.1775C95.12 39.3619 95.0651 39.5639 95.0278 39.7681C94.861 40.3213 94.6217 40.8372 94.2529 41.2982C94.1058 41.4826 93.9587 41.667 93.7743 41.8338C93.5702 42.0182 93.3133 42.128 93.0543 42.2202C92.8896 42.2751 92.7228 42.3322 92.5384 42.3497C92.1696 42.3497 91.8381 42.24 91.5242 42.0556C91.0807 41.7965 90.7492 41.4277 90.5099 40.9667C90.196 40.4135 89.9918 39.8405 89.8272 39.2324C89.735 38.8834 89.6801 38.5146 89.623 38.1436C89.6055 37.924 89.6604 37.7023 89.6801 37.4981V37.3137C89.6604 37.2589 89.6604 37.204 89.6604 37.1491C89.6604 37.0569 89.6428 36.9823 89.6428 36.9098C89.623 36.7605 89.6604 36.6332 89.6801 36.5037C89.7526 36.1524 89.7899 35.8209 89.8821 35.4697C89.937 35.2129 90.0116 34.9538 90.1214 34.6948L90.1762 34.5301C90.2882 34.1416 90.4726 33.8101 90.7317 33.5159C90.8787 33.3117 91.0258 33.09 91.2475 32.9429C91.5417 32.7212 91.8732 32.5939 92.242 32.5368C92.4637 32.5017 92.703 32.5192 92.9247 32.5566C93.1289 32.5939 93.2936 32.6861 93.4604 32.7958L93.996 33.2569C94.2156 33.4588 94.3649 33.7179 94.5119 33.9769L94.7512 34.383C95.0454 34.9714 95.232 35.5817 95.3044 36.2446C95.3242 36.5586 95.3418 36.8725 95.3966 37.1864C95.4164 37.2413 95.3966 37.3137 95.3966 37.3511Z" fill="white"/>
<path d="M100.741 43.8075C100.853 43.8997 100.963 43.8623 101.075 43.8623C101.314 43.8448 101.573 43.825 101.813 43.8623C101.922 43.8623 102.034 43.8799 102.144 43.8799C102.513 43.8799 102.882 43.8623 103.25 43.8448L103.582 43.7877C103.749 43.7526 103.786 43.6955 103.786 43.5309C103.786 43.364 103.766 43.1994 103.786 43.0325C103.804 42.7559 103.804 42.4793 103.859 42.2027C103.916 41.8339 103.988 41.4651 104.118 41.1138C104.172 41.0041 104.227 40.8746 104.247 40.745C104.284 40.6353 104.357 40.5606 104.486 40.5233L104.633 40.486C104.781 40.4684 104.947 40.4684 105.094 40.486C105.446 40.5057 105.777 40.486 106.109 40.5057C106.313 40.5233 106.515 40.486 106.737 40.4684C107.031 40.4509 107.327 40.486 107.621 40.5431C107.751 40.5606 107.88 40.5606 108.01 40.598C108.102 40.6155 108.174 40.6726 108.194 40.7648L108.379 41.2434C108.581 41.779 108.655 42.3125 108.655 42.8657C108.655 43.0698 108.673 43.2718 108.673 43.476C108.673 43.6604 108.765 43.7526 108.949 43.7701H108.969L109.356 43.8448C109.557 43.8623 109.762 43.8799 109.964 43.8623C110.168 43.825 110.389 43.8075 110.609 43.825C110.701 43.825 110.776 43.8448 110.85 43.8448C111.127 43.8448 111.384 43.8448 111.643 43.8623C111.974 43.8799 112.306 43.8623 112.64 43.8623C112.842 43.8623 113.044 43.825 113.228 43.7877C113.377 43.7701 113.395 43.6955 113.358 43.5682L113.228 43.364C113.063 43.1423 112.916 42.9403 112.767 42.701C112.398 42.1281 112.086 41.52 111.845 40.857C111.588 40.1545 111.329 39.4542 111.107 38.7342C110.998 38.4027 110.85 38.0887 110.758 37.7397C110.646 37.2962 110.462 36.8901 110.297 36.4664C110.185 36.2074 110.076 35.9681 110.038 35.6915C110.021 35.5071 109.964 35.3402 109.891 35.1932C109.799 34.9539 109.687 34.7146 109.632 34.4753L109.465 33.9397L109.281 33.5511C109.154 33.2196 109.079 32.8705 108.912 32.5369C108.82 32.3525 108.747 32.1505 108.618 31.9661L108.102 31.2834C108.01 31.1736 107.898 31.1165 107.771 31.0616C107.604 31.0068 107.437 30.9694 107.252 30.9694H106.662C106.515 30.9694 106.368 30.9694 106.221 30.9519C106.054 30.9146 105.889 30.9146 105.722 30.9146C105.593 30.9146 105.483 30.9321 105.354 30.9519C105.114 30.9694 105.057 31.0441 105.057 31.2834V31.3756C105.094 31.6522 105.149 31.9485 105.114 32.2251C105.077 32.5566 105.022 32.8881 104.91 33.1823C104.8 33.5335 104.688 33.8848 104.561 34.2163C104.394 34.6948 104.265 35.1756 104.118 35.6542C103.988 36.0427 103.841 36.3918 103.711 36.7606C103.602 37.0745 103.472 37.3709 103.398 37.6826C103.288 38.0339 103.178 38.3851 103.048 38.7342C102.882 39.1776 102.66 39.6013 102.55 40.0821L102.495 40.284C102.311 40.8921 102.014 41.4453 101.758 42.0183C101.628 42.2949 101.444 42.5518 101.297 42.8306C101.13 43.1247 100.908 43.3838 100.741 43.6779V43.8075ZM106.627 38.8264C106.368 38.8264 106.128 38.8088 105.869 38.8088C105.685 38.8088 105.52 38.7912 105.336 38.7539C105.132 38.699 105.057 38.5871 105.077 38.3478C105.094 38.1085 105.169 37.867 105.261 37.6277C105.371 37.3709 105.446 37.0943 105.52 36.8177C105.555 36.743 105.575 36.6684 105.593 36.5959C105.74 36.2447 105.852 35.8935 105.981 35.5444C106.036 35.4522 106.074 35.3402 106.128 35.2678C106.201 35.1756 106.258 35.1558 106.313 35.2678C106.497 35.6169 106.699 35.9681 106.774 36.3742C106.811 36.6684 106.921 36.9274 107.031 37.1865C107.123 37.3884 107.18 37.5904 107.235 37.7946L107.364 38.3851C107.4 38.6068 107.252 38.7342 107.105 38.7912C106.939 38.8264 106.791 38.8461 106.627 38.8264Z" fill="white"/>
<path d="M126.082 30.9146C126.024 30.9321 125.952 30.9321 125.877 30.9321C125.546 30.9146 125.232 30.9146 124.901 30.9892C124.771 31.0243 124.624 31.0243 124.477 31.0068C124.33 30.9892 124.18 30.9694 124.033 30.9892C123.831 31.0243 123.665 31.099 123.535 31.2834C123.48 31.3931 123.443 31.5051 123.406 31.6148C123.313 31.8739 123.204 32.0956 123.019 32.2976L122.817 32.5939C122.705 32.8135 122.576 33.0176 122.429 33.2196C122.299 33.3667 122.207 33.5511 122.042 33.6806C121.893 33.7926 121.746 33.9199 121.636 34.0692C121.397 34.3458 121.138 34.6399 120.916 34.9166C120.694 35.1756 120.475 35.4149 120.233 35.6366C120.161 35.7091 120.106 35.7661 120.014 35.8013C119.957 35.8386 119.922 35.8386 119.902 35.7661C119.884 35.7464 119.884 35.7288 119.884 35.7091C119.847 35.6169 119.847 35.5246 119.847 35.4324C119.847 35.1932 119.865 34.9363 119.847 34.6948C119.829 34.3458 119.829 33.9945 119.829 33.6433C119.829 33.3667 119.884 33.1098 119.939 32.8332C120.014 32.3349 120.161 31.8563 120.326 31.3756C120.345 31.3207 120.383 31.246 120.383 31.1912C120.4 31.0616 120.363 31.0068 120.253 30.9694C120.106 30.9321 119.976 30.9321 119.847 30.9519C119.588 30.9892 119.331 30.9694 119.072 30.9892C118.703 31.0068 118.352 30.9892 117.983 30.9892C117.559 31.0068 117.136 30.9519 116.712 30.9519C116.692 30.9519 116.692 30.9519 116.675 30.9321C116.508 30.9146 116.324 30.9321 116.159 30.9321C116.102 30.9321 116.067 30.9519 116.01 30.9694C115.937 30.9892 115.9 31.0441 115.9 31.1363C115.9 31.2087 115.917 31.2834 115.955 31.3756C116.029 31.6148 116.122 31.8563 116.194 32.1132C116.286 32.4644 116.378 32.7959 116.398 33.1647V34.3831C116.398 34.5302 116.398 34.6597 116.435 34.8068C116.453 34.9539 116.471 35.0834 116.453 35.2129C116.435 35.4149 116.416 35.6169 116.416 35.8013C116.416 35.9681 116.435 36.1152 116.435 36.2645C116.435 36.7057 116.416 37.1667 116.416 37.6102C116.398 38.328 116.416 39.0481 116.416 39.7681C116.416 40.0074 116.398 40.2467 116.416 40.5057C116.435 40.745 116.49 41.0041 116.453 41.2609C116.435 41.5024 116.416 41.7417 116.378 41.9634C116.286 42.3674 116.159 42.7559 116.01 43.1423C115.974 43.2916 115.917 43.4189 115.9 43.5484C115.863 43.7153 115.917 43.8075 116.084 43.8448C116.194 43.8623 116.306 43.8799 116.416 43.8799C116.822 43.9172 117.208 43.8623 117.614 43.8623H117.671C117.928 43.825 118.205 43.8075 118.481 43.8448C118.574 43.8623 118.666 43.8623 118.778 43.8623H119.717C119.884 43.8623 120.069 43.8623 120.253 43.825C120.383 43.7877 120.418 43.7153 120.4 43.5857L120.29 43.2916C120.198 43.0501 120.086 42.8108 120.031 42.5518C119.957 42.2027 119.939 41.8515 119.902 41.5024C119.884 41.1885 119.902 40.8921 119.884 40.5804C119.865 40.2665 119.884 39.9328 119.865 39.621C119.847 39.3796 119.865 39.16 119.847 38.9383C119.847 38.6793 119.939 38.4575 120.141 38.2731C120.233 38.1809 120.271 38.1809 120.363 38.2929C120.437 38.3851 120.51 38.4773 120.567 38.5695C120.751 38.8637 120.899 39.16 121.1 39.4169C121.23 39.564 121.305 39.7308 121.377 39.8977C121.452 40.0623 121.524 40.2094 121.636 40.3389C121.746 40.5057 121.858 40.6726 121.95 40.8372C122.172 41.1687 122.356 41.52 122.558 41.8712C122.65 42.0359 122.76 42.2203 122.78 42.4244C122.797 42.7559 122.927 43.0698 123.019 43.4013C123.074 43.6033 123.204 43.6955 123.388 43.7526C123.59 43.825 123.794 43.7877 123.996 43.8075C124.163 43.8075 124.347 43.7877 124.514 43.8075C124.716 43.825 124.918 43.8448 125.14 43.8448C125.307 43.8448 125.491 43.825 125.656 43.825C126.044 43.825 126.431 43.8448 126.819 43.8623C127.206 43.8799 127.612 43.8623 127.998 43.8623C128.073 43.8623 128.128 43.8448 128.182 43.825C128.257 43.8075 128.257 43.7526 128.24 43.6955C128.22 43.6406 128.182 43.6033 128.128 43.5682L127.629 43.1072C127.445 42.9228 127.26 42.7362 127.096 42.5342C126.984 42.3871 126.874 42.24 126.745 42.1105C126.58 41.9437 126.431 41.7417 126.338 41.52C126.246 41.318 126.136 41.1336 125.989 40.9668C125.84 40.7999 125.73 40.6155 125.656 40.4135C125.583 40.2291 125.491 40.0623 125.379 39.9152C125.252 39.7484 125.122 39.5837 125.01 39.3993C124.826 39.103 124.624 38.8264 124.514 38.4949C124.514 38.4773 124.494 38.4575 124.477 38.44L124.2 37.9417L123.296 36.4115C123.166 36.1525 123.019 35.8935 122.945 35.5993C122.909 35.4324 122.89 35.2678 122.982 35.101C123.111 34.8441 123.296 34.6026 123.517 34.4007C123.682 34.2711 123.831 34.1416 123.941 33.977C124.051 33.8277 124.18 33.6806 124.33 33.5511C124.514 33.3667 124.716 33.1823 124.883 32.9803C125.067 32.7213 125.307 32.5193 125.563 32.3173C125.713 32.2054 125.86 32.0956 125.989 31.9485C126.099 31.7993 126.246 31.6697 126.395 31.56C126.58 31.4304 126.782 31.3009 126.966 31.1363C127.004 31.0814 127.058 31.0441 127.041 30.9892C127.021 30.9146 126.949 30.9321 126.874 30.9146C126.799 30.9146 126.707 30.9519 126.635 30.9146H126.082Z" fill="white"/>
<mask id="mask0_217_101" style="mask-type:luminance" maskUnits="userSpaceOnUse" x="0" y="0" width="57" height="47">
<path d="M0 0.0460815H56.4759V46.4039H0V0.0460815Z" fill="white"/>
</mask>
<g mask="url(#mask0_217_101)">
<path fill-rule="evenodd" clip-rule="evenodd" d="M30.236 45.5588C29.6345 45.438 29.5708 45.0012 29.415 44.5533C29.6059 44.7245 29.7025 44.7531 29.8804 44.9836C29.9945 45.1351 30.1548 45.3744 30.236 45.5588ZM28.2514 43.4425C28.4644 43.6115 28.7805 43.752 28.2932 43.965L28.2514 43.4425ZM28.0078 41.8882L28.0627 41.6182C28.6115 43.1066 28.2383 42.3427 28.0078 41.8882ZM28.8376 41.8531C28.8705 41.8399 28.9144 41.8312 28.9364 41.8202C28.9583 41.8114 29.0066 41.796 29.0308 41.7829L29.3579 41.4843C29.3667 41.4426 29.3864 41.4316 29.4545 41.4206L29.2503 42.077C29.5818 42.3668 29.7969 42.8564 29.8211 43.3591C29.3996 42.8168 29.123 42.5227 28.8376 41.8531ZM29.101 41.1506C29.5072 40.8389 28.7081 41.0496 29.4215 40.8389C29.281 41.1748 29.4764 41.0123 29.101 41.1506ZM29.9111 41.0079C30.4116 40.4964 30.2053 41.335 30.3501 40.2593C30.9143 40.8938 29.9967 40.2593 30.5916 41.7653C30.9297 42.6193 30.3348 42.3427 30.3765 43.6093L29.9945 42.5205C30.2579 42.6544 30.427 42.4897 30.4862 42.459C30.2426 41.8838 30.1021 41.6138 29.9111 41.0079ZM30.0494 39.9849C29.7311 39.8949 29.8913 40.1693 29.8496 39.6117C29.8167 39.188 29.663 39.5568 29.9286 39.1244C30.1548 39.2385 30.1328 39.0453 30.1394 39.5239C30.1438 39.8335 30.1943 39.7259 30.0494 39.9849ZM28.5434 39.21C28.6203 39.0102 28.6356 39.0585 28.7059 38.9553C28.8486 39.1354 28.8925 38.7248 28.8947 39.873C28.8354 39.8444 28.3041 39.851 28.5434 39.21ZM29.0593 36.7425L29.3227 36.67L29.4369 37.1267L29.505 37.6272C29.1559 37.5416 29.3908 37.5987 29.1735 37.4362C28.9517 37.2716 29.3601 37.4647 28.9408 37.2562L28.8727 37.9631C28.8639 37.9938 28.8332 38.086 28.8266 38.0684C28.82 38.0509 28.7937 38.1409 28.7739 38.176C28.4161 37.7831 28.5764 37.4494 28.5829 36.8764C28.9561 36.8171 28.7871 36.8588 29.0593 36.7425ZM28.1658 35.3463C27.6346 35.3243 28.0034 35.4692 27.8607 35.0302C28.168 35.2146 28.0166 34.9094 28.1658 35.3463ZM37.4607 32.6988C37.4585 32.6505 37.5638 32.4529 37.6451 32.7251C37.7636 33.1247 37.4673 32.8305 37.4607 32.6988ZM48.5469 31.8887C48.0463 31.8031 48.3317 31.9129 48.1297 31.6297C48.5029 31.7241 48.3163 31.498 48.5469 31.8887ZM45.3615 31.5023C45.03 31.3575 45.1771 31.487 45.0081 31.2126C45.6315 31.2762 45.2386 31.0457 45.3615 31.5023ZM21.828 31.217C21.828 30.9755 22.1244 30.8416 22.4317 30.8218C22.4339 31.0633 22.4779 31.1928 22.2539 31.3048C21.8412 31.5089 21.8302 31.2192 21.828 31.217ZM49.6203 32.1434L49.3481 31.6253C49.032 31.7065 49.1703 31.8558 48.6478 31.6736C48.6544 31.3223 48.9771 30.6286 49.1484 30.3366C49.7367 30.5452 49.8662 30.3586 49.9935 30.9206C49.3701 30.7362 49.1132 30.5847 49.2274 31.0589C49.2867 31.3026 49.5611 31.4892 49.763 31.6604L49.6203 32.1434ZM23.2703 30.4157C23.6106 30.2576 23.8499 30.2752 24.0826 30.5759L23.6677 30.6681C23.2747 30.6572 23.4306 30.7647 23.2703 30.4157ZM50.1692 30.565C49.9321 30.4267 49.987 30.5167 49.9079 30.2444C50.2306 30.3586 50.0462 29.9876 50.1692 30.565ZM38.8437 28.9317C38.8525 28.8922 38.8854 28.89 38.9666 28.8636L39.0369 29.4607L40.0994 30.1961C39.1269 30.2049 37.4607 30.2269 36.7187 29.9064C37.1906 29.7066 37.8141 29.7395 38.409 29.6539L38.8437 28.9317ZM40.6285 29.981C40.0204 29.8691 40.4331 30.0776 40.3277 29.6693C40.6658 29.8054 40.5187 29.6012 40.6285 29.981ZM41.9566 29.4871C42.354 29.5485 42.2881 29.4761 42.3035 29.88C41.9895 29.8625 41.7942 29.8954 41.9566 29.4871ZM45.0146 29.6846C45.2188 29.5683 44.6985 29.5771 45.3703 29.599L45.1551 29.8734L45.0146 29.6846ZM32.6618 29.621C33.046 29.3685 32.8945 29.6737 33.0086 29.0875C33.5311 29.228 33.1184 29.0941 33.485 29.2917C33.5157 29.3093 33.6079 29.3641 33.6299 29.3773L33.7704 29.4607C33.4631 30.071 33.6562 29.6517 32.9735 29.6912C33.1821 30.0183 33.136 30.4771 32.8111 30.7889C32.653 31.0172 32.0976 31.3201 31.5224 31.869C31.3292 32.0512 31.0592 32.2356 30.8726 32.4705C30.6421 32.7646 30.5016 33.1203 30.3106 33.421C30.1131 33.1817 30.1482 32.7646 30.0867 32.4375C29.9791 31.8712 29.8299 31.3531 30.1899 30.7889C30.9714 29.5551 32.2666 28.0689 32.2754 28.0689C33.4916 28.2906 32.5937 28.126 33.5421 27.8187C33.6738 27.9899 33.6057 28.2467 33.8626 29.0151C32.3259 29.0788 34.2951 28.5914 32.8615 28.8197C32.8396 28.8241 32.8001 28.8351 32.7759 28.8373C32.7562 28.8395 32.7167 28.8439 32.6969 28.8439C32.6969 28.8439 32.4883 28.7912 32.4093 28.767C32.4664 29.1117 32.5257 29.4541 32.5388 29.4388L32.6618 29.621ZM50.9441 29.9086C50.8717 29.4212 50.977 29.8603 51.1307 29.6078C51.3897 29.1841 51.0187 29.6781 51.2229 29.25C51.561 29.3027 52.1186 29.5881 52.3645 29.9481L51.2251 29.9876C50.9375 29.97 51.0956 29.9788 50.9441 29.9086ZM44.1299 28.9317C44.1234 28.1414 44.2309 28.8087 44.31 28.0601L44.8368 28.5782C44.8456 28.5848 44.8676 28.6046 44.8763 28.609C45.2627 28.8175 45.8752 28.9141 45.491 29.441C45.2386 29.3466 45.4493 29.4629 45.2803 29.3158L44.1299 28.9317ZM43.9082 28.1523C44.3056 28.7231 43.9126 28.5804 43.906 28.5892C43.658 28.3214 43.6184 28.4685 43.9082 28.1523ZM45.4998 28.497C45.12 28.2775 45.4866 28.1172 45.491 28.1062C45.8049 28.2336 45.7457 28.1677 45.8445 28.4553C45.783 28.486 45.6293 28.5716 45.4998 28.497ZM41.6493 28.0096L41.7766 28.2906C41.4517 28.238 41.6229 28.3916 41.6493 28.0096ZM20.4779 28.2336C20.3989 27.8055 20.5855 28.1062 20.6492 28.216C20.7589 28.4114 20.4823 28.2621 20.4779 28.2336ZM42.804 29.2522C42.5779 29.07 42.8172 29.3005 42.8479 28.9756C42.0642 28.8856 42.2771 28.8658 42.1564 28.486C42.0269 28.0777 41.8622 28.3192 42.1103 27.9372L42.4615 28.216C42.7755 28.4311 43.1794 28.7648 43.3638 29.1556L43.5394 28.9229C43.7677 28.6968 43.3045 28.8746 43.7633 28.8439L43.6623 29.4849C43.4099 29.3949 43.5592 29.4761 43.355 29.3027C43.2979 29.2522 43.2101 29.127 43.2079 29.1249C42.8677 29.2829 42.9401 29.3619 42.804 29.2522ZM52.685 27.9635L52.9682 28.2292C53.2184 28.4663 52.933 28.1326 53.2009 28.4553C53.1987 28.4575 52.944 28.6112 52.8694 28.3697C52.8562 28.328 52.8211 28.317 52.7881 28.2928L52.8277 28.7692L52.4742 29.1073C52.4084 29.0656 52.3798 28.9712 52.3118 28.9185C51.9649 28.6616 52.1822 28.98 51.7673 28.6792C51.8486 28.2423 51.91 28.1897 51.7344 27.7879C52.3666 28.1633 51.921 28.3499 52.685 27.9635ZM41.1224 27.8801C41.3639 27.5925 40.9204 27.8055 41.4319 27.6255C41.219 27.9811 41.5944 27.8011 41.1224 27.8801ZM43.0543 28.1194C43.0433 28.1238 43.1179 28.4597 42.8194 28.0953C42.6108 27.8384 42.782 27.9921 42.7864 27.8187C42.6108 28.1062 42.782 28.3214 42.3737 27.7857C42.5779 27.6386 42.5647 27.6869 42.8084 27.6013L43.0257 27.9262C43.0367 27.9482 43.063 28.0206 43.0674 28.036L43.0543 28.1194ZM34.4356 27.8977C34.3653 27.924 34.3587 27.9657 34.2073 27.9438C34.1787 27.9416 34.0799 27.9065 34.0536 27.8933C33.9197 27.834 33.8428 27.7199 33.8099 27.6869C34.5256 27.5991 34.2182 27.5508 34.4356 27.8977ZM31.9351 27.373C32.001 27.8779 31.9571 27.7791 31.4741 27.6913C31.5927 27.3555 31.54 27.4389 31.9351 27.373ZM46.6018 28.576C46.5382 28.508 46.4943 28.4114 46.4196 28.3719C46.4065 28.0272 46.6106 28.2204 46.5557 27.8077C46.5074 27.4367 46.4043 27.7243 46.3604 27.2567C46.8719 27.6299 46.0925 27.5333 47.3087 27.9065C47.6534 28.0118 47.6358 28.2445 47.5063 28.5431L47.076 28.2972C46.7555 28.4421 47.0102 28.3324 46.8301 28.4399C46.7028 28.5146 46.8521 28.4575 46.6018 28.576ZM44.7402 27.8999C44.2331 27.9482 44.2617 27.9592 44.2924 27.3313C44.6656 27.6145 44.2814 27.305 44.5141 27.6321C44.5822 27.7308 44.5931 27.6804 44.7402 27.8999ZM2.84981 27.452C3.09788 27.2852 2.92664 27.2874 3.17691 27.452C2.78395 27.6321 2.95299 27.5069 2.84981 27.452ZM42.1037 27.7506C41.4341 27.755 41.5615 27.744 41.3573 27.2633C41.4056 27.283 41.792 27.3906 41.7942 27.3906C42.3232 27.6364 41.939 27.3642 42.1037 27.7506ZM4.63238 27.2281C4.54457 26.7847 4.73775 27.092 4.80361 27.2084C4.95728 27.4872 4.63897 27.2654 4.63238 27.2281ZM47.2868 26.9383L47.3219 27.2589C47.0409 27.305 46.8894 27.1118 46.8345 26.8044C47.3087 26.7737 47.0124 26.6595 47.2868 26.9383ZM43.906 26.5586C44.3143 26.7561 44.2243 26.7298 44.3341 27.305L43.6799 27.2062C43.6997 26.7056 43.7414 26.7474 43.906 26.5586ZM16.3311 26.7649C16.2564 27.1535 16.4233 27.0393 16.0347 27.0701C16.151 26.5695 16.0698 26.8857 16.3311 26.7649ZM7.47747 27.1798C7.45991 26.7649 7.24696 27.0108 7.75408 26.8966L7.47747 27.1798ZM4.03526 27.6935C3.87281 27.4806 3.80915 27.5003 3.85964 26.9844C3.86184 26.9713 3.88159 26.9515 3.88379 26.9208C3.88379 26.8901 3.90135 26.8791 3.91233 26.8593C4.21528 27.1996 4.08136 26.844 4.16259 27.2435C4.32504 28.0448 4.12308 27.586 4.03526 27.6935ZM32.6947 27.1162C32.8089 27.0042 32.5257 26.7188 33.2435 26.9274C33.0789 27.0986 33.013 27.2611 32.6947 27.1162ZM45.4844 27.0898C45.1903 26.7891 45.3856 26.8132 45.5437 26.6486C46.0135 27.0701 45.5371 27.0547 45.4844 27.0898ZM47.5304 26.7496C47.1485 26.6595 47.447 26.8374 47.2516 26.4905C47.5963 26.6288 47.4865 26.3939 47.5304 26.7496ZM46.5645 26.9823C45.9981 27.0174 45.513 26.6354 45.2912 26.1898L46.5645 26.9823ZM37.4826 26.6398C37.5924 26.2644 37.5441 26.2951 37.9305 26.2293C37.8668 26.5454 37.9766 26.5739 37.4826 26.6398ZM22.8467 26.35C22.7084 26.4751 22.8247 26.4181 22.5635 26.563C22.3395 26.6903 22.5261 26.5761 22.2803 26.6771C22.4054 26.2161 22.3044 26.3281 22.8467 26.35ZM17.6899 27.1008C17.2992 26.6859 17.6899 26.7078 17.275 26.3983C17.4989 26.3851 17.646 26.372 17.8151 26.5651C18.219 27.0306 17.848 26.9998 17.6899 27.1008ZM10.3401 25.8451C10.6277 25.5378 10.4148 25.6475 10.7682 25.5597L10.8165 25.9768C11.0843 25.7178 10.957 26.1876 11.0514 25.6958L11.1436 26.1063C10.0547 26.5476 10.0964 26.519 9.28199 26.7166C9.41591 26.361 9.58714 25.7792 9.76496 25.5948C9.91424 25.8297 10.035 26.091 10.1711 25.9571C10.2106 25.9175 10.3116 25.9988 10.3401 25.8451ZM38.2971 26.339C38.0644 25.9944 38.1522 26.2117 38.2093 25.7836C38.9096 25.7661 38.712 25.8341 38.7822 26.1107C38.622 26.192 38.9052 26.3412 38.42 26.0624L38.2971 26.339ZM37.419 25.9768C36.8745 25.8495 37.1819 25.9549 37.048 25.6365C37.3246 25.7529 37.2389 25.5421 37.419 25.9768ZM21.8807 25.777C21.9334 25.5729 21.7424 25.7705 21.9927 25.7178C22.1442 25.6826 21.8237 25.9944 21.8807 25.777ZM43.827 25.6651C43.9302 25.2963 43.8511 25.4829 44.187 25.3292L44.4241 25.8319L43.827 25.6651ZM23.3867 25.777C23.0025 25.9812 23.0925 25.9153 23.0333 25.5597C23.3582 25.6431 23.2001 25.496 23.3867 25.777ZM17.2465 25.8122C17.5977 25.5839 16.9479 25.7353 17.5802 25.5531C17.4287 25.8144 17.6043 25.6914 17.2465 25.8122ZM24.3965 26.0976L24.8839 25.4631C25.3098 25.6958 25.3317 25.8407 25.6939 25.9988L25.6478 26.0185C25.8388 26.0888 26.0123 26.1744 26.1374 26.2929C26.4228 26.5586 26.7652 26.8593 27.0923 27.0964C27.4216 27.3335 27.4985 27.3555 27.9529 27.5091C27.808 28.0162 27.7926 28.3192 27.5446 28.8021C27.4238 29.0326 27.3733 29.3202 27.2702 29.5859C27.167 29.8471 27.1033 30.1742 26.9892 30.3871C26.7565 30.8196 26.7696 31.2082 26.0957 31.015C25.5534 30.2576 25.5908 29.9195 25.1868 29.1885C24.7566 28.407 24.0014 27.6979 23.975 27.643L24.0738 27.1886C23.6875 26.4137 23.7226 26.7035 23.9509 26.3346C23.9223 26.3193 23.8828 26.2973 23.8653 26.2885L24.3965 26.0976ZM13.9009 26.7078C14.0084 26.2622 14.2763 26.091 13.8614 25.6212C14.2785 25.8363 14.3268 25.7573 14.566 26.2227L14.2346 26.5256C13.9272 26.7298 14.1402 26.5849 13.9009 26.7078ZM11.4026 25.9197C11.4685 25.349 11.3565 25.5356 11.7232 25.2502C12.0722 25.3336 11.9097 25.3358 12.2412 25.5136L11.8768 25.8078C11.7231 25.8758 11.6046 25.8802 11.4026 25.9197ZM36.4508 25.5729C36.6989 25.2875 36.2159 25.4543 36.7823 25.3336L36.4508 25.5729ZM9.98668 25.4412C9.98888 25.0855 10.136 25.2787 10.1799 25.4456C10.2194 25.5992 9.98229 25.788 9.98668 25.4412ZM7.0889 25.777C7.34356 25.4192 7.24696 25.6958 7.90994 25.4346C7.82432 25.619 7.8814 25.6739 7.58943 25.8078C7.14159 26.0119 7.1833 25.8297 7.0889 25.777ZM24.6995 25.3863C24.7236 25.3555 24.7829 25.1646 24.7983 25.1404C24.9366 24.9472 24.8114 25.1031 25.0595 25.0306C24.8378 25.428 25.2132 25.1668 24.6995 25.3863ZM22.7545 25.2172C22.7479 24.754 22.9301 25.0877 22.9718 25.1997C23.0267 25.3512 22.7588 25.4631 22.7545 25.2172ZM19.1739 25.1075C18.6032 25.4104 18.7744 25.1799 18.6076 25.0636C18.9017 24.8901 19.1564 25.0965 19.1739 25.1075ZM43.175 25.349C43.0586 25.0746 43.1245 25.0899 43.3023 24.9077C43.4165 25.1207 43.4889 24.765 43.3682 25.1711C43.2409 25.5904 43.4494 25.1536 43.175 25.349ZM17.3848 24.9955C17.6899 24.8353 17.5099 24.9165 17.6702 24.9955C17.2772 25.2897 17.4594 25.0658 17.3848 24.9955ZM4.65872 25.1294C4.41724 25.2721 4.75971 25.2107 4.40407 25.2216C3.94306 25.2326 4.29431 25.2041 4.14722 25.1075C4.32065 24.967 4.06819 24.9889 4.39968 24.9714C4.93533 24.9428 4.44578 24.9384 4.65872 25.1294ZM15.1061 25.1075C15.6198 25.2348 15.7976 24.8375 15.9161 25.5531C15.9008 25.5619 15.7098 26.0624 15.0995 25.3534C14.8383 25.0482 15.0073 24.8484 14.5507 25.0043L14.9436 24.7079L15.1061 25.1075ZM40.2179 25.0899L40.0709 24.5411C40.6943 24.6596 40.6043 24.8967 40.6768 24.9955C40.6438 25.0153 40.5977 25.0394 40.578 25.057C40.5582 25.0702 40.5121 25.1009 40.4924 25.1185C40.0094 25.5421 40.5209 24.9253 40.3584 25.3182C40.0862 25.2172 40.005 25.2172 39.7525 25.0921C40.1784 24.866 39.983 24.9428 40.2179 25.0899ZM31.2019 24.5477C31.147 24.1394 31.3424 24.4511 31.3863 24.5433C31.4983 24.7672 31.2107 24.6135 31.2019 24.5477ZM4.55116 24.2272C4.6697 24.416 4.74434 24.5455 4.83435 24.8067L4.30309 24.6443L4.50725 24.2908C4.51384 24.2579 4.54018 24.2513 4.55116 24.2272ZM34.8966 24.9143C34.4619 24.8748 34.5892 24.9472 34.3038 24.7475C33.9987 24.5345 34.1063 24.6113 34.0448 24.3369C34.4597 24.4818 34.7188 24.5389 34.8966 24.9143ZM40.1982 24.1174L40.0796 23.8364C40.3123 23.8847 40.2157 23.6454 40.1982 24.1174ZM37.1533 24.0823C36.7099 24.0208 36.857 24.124 36.9294 23.8496C37.1445 23.843 37.0523 23.6301 37.1533 24.0823ZM37.0787 24.5982C36.205 24.5565 37.1138 24.6245 36.5101 24.4138C35.9745 24.2228 35.553 24.5016 35.4191 23.8101L35.7374 24.1152L36.5913 24.0779C36.6155 24.0976 36.6462 24.1262 36.6638 24.1394L37.0787 24.5982ZM19.3979 24.4533C19.0686 24.1372 19.2815 23.9615 19.0774 23.9396C19.2376 23.8123 19.1322 23.6015 19.7491 23.8825L19.3979 24.4533ZM29.9001 23.6762C29.4896 23.5466 29.7596 23.7508 29.6191 23.4127C29.9923 23.5708 29.7574 23.2788 29.9001 23.6762ZM45.2803 23.6235C45.2561 23.3776 45.4164 23.3732 45.6337 23.2678C45.4888 23.5796 45.6227 23.5027 45.2803 23.6235ZM37.689 23.2195L38.1785 23.8825C37.6846 23.8452 37.4387 23.6498 37.689 23.2195ZM38.0644 23.3205C38.0732 23.1164 37.9568 23.202 38.2466 23.281C38.4002 23.3227 38.0512 23.6059 38.0644 23.3205ZM34.778 23.3205H35.0744C35.0437 23.3381 35.0063 23.3754 34.991 23.3798C34.4224 23.5444 34.9229 23.4435 34.778 23.3205ZM33.4213 23.2086C33.8999 23.292 33.9702 23.1756 34.2731 23.0966L34.058 23.7969L33.4213 23.2086ZM44.9224 23.5422C44.6941 23.1493 44.7688 23.4193 44.5075 23.0966C45.0366 22.9759 44.9927 23.5071 45.1771 24.0472C44.3539 24.0472 44.9861 24.1701 44.4614 23.8232L44.5646 23.4764C44.9312 23.5861 44.7161 23.5993 44.9224 23.5422ZM2.74663 24.1525C2.81688 23.5379 2.98372 23.5159 3.24277 23.0285C3.77183 23.6981 3.01885 23.7486 2.74663 24.1525ZM36.543 23.2239C36.0271 23.1251 36.3455 23.3425 36.1874 22.932C36.6418 23.1581 36.3257 22.8573 36.543 23.2239ZM47.0233 23.0329C47.4756 23.1032 47.8883 23.2064 48.2549 23.3688C48.8652 23.641 48.5512 23.8957 48.8476 24.1328C48.8783 24.1591 48.8871 24.2118 48.8937 24.2381L48.9925 24.9362L48.9201 25.1821L48.8388 25.9044L48.9398 25.7617L49.0518 25.9088L49.2076 25.63C49.1308 25.3907 49.1154 25.4851 49.4359 25.5004C49.0232 25.2085 49.2713 25.5158 49.0562 24.9955C49.5677 25.2326 49.3437 25.1031 49.6379 25.4434C49.8311 25.0065 49.6928 25.417 49.5523 24.9714C48.9683 24.9626 49.2933 25.0109 48.9618 24.6157C49.223 24.5477 49.2054 24.596 49.3459 24.7211L49.1615 24.326C49.3833 24.2294 49.2428 24.3084 49.335 24.2711L49.4579 24.1942C49.7191 23.9067 49.6313 24.0186 50.0331 23.8781L49.7608 23.3205C49.7982 23.3227 49.8487 23.3337 49.8706 23.3381C49.8904 23.3447 49.9431 23.3556 49.965 23.3622L50.2131 23.5027C50.4831 23.7179 50.1516 23.584 50.549 23.7662C50.5336 24.2162 50.7509 23.6498 50.3975 24.012L50.2131 24.1416C50.9134 24.1855 50.437 23.7662 50.639 24.697C50.7136 25.0372 50.7795 24.7848 50.6302 25.2107C50.0967 25.1909 50.4633 25.1821 49.9914 25.0438L50.0726 25.3512L50.336 25.2853C50.6016 25.4499 50.3909 25.0702 50.6126 25.5246C50.6455 25.7924 50.7399 25.6124 50.5863 25.8583C50.4019 26.1546 50.5468 26.0932 50.3141 25.9417C50.3031 26.2929 50.3294 26.1173 50.2614 26.2885C50.2284 26.3698 50.1692 26.4664 50.1604 26.4466C50.1516 26.4268 50.1165 26.5015 50.0967 26.53L50.2636 26.7496C50.6082 26.8505 50.3843 26.6947 50.6126 26.912C50.8782 26.2929 51.3744 26.6881 51.6268 27.0042C51.4512 27.2171 51.6554 27.0701 51.381 27.2479C51.1658 27.3884 51.3963 27.2676 51.1109 27.3445C51.2558 27.1162 51.1527 27.2764 51.2712 27.1228L51.4205 26.9471C50.9573 27.002 50.977 26.9998 50.7509 27.1974C50.0858 26.7364 50.2811 27.2128 49.684 26.8461C49.2867 27.1162 49.5567 27.1052 49.1506 27.2698C49.1001 27.1535 49.1374 27.2018 49.1615 27.1249C49.2779 26.7276 49.3218 26.8483 49.111 26.4444L48.683 26.3105L48.672 25.9483C48.5249 25.6914 48.6588 25.7727 48.3998 25.7244L48.3273 25.8363C48.2746 25.8253 48.0024 25.788 47.9388 25.7727C47.6753 25.7112 47.8553 25.7792 47.6687 25.6651C47.447 25.3599 47.6622 25.889 47.4492 25.2612C47.4097 25.1448 47.4404 25.1382 47.4207 24.9955L46.7797 24.7211C46.7665 24.7892 46.7292 25.0482 46.716 25.0943C46.6128 25.4104 46.7577 25.1075 46.5689 25.3248L46.5316 24.6135C46.9443 24.1416 46.2594 24.9538 46.6589 24.4774C46.8104 24.2996 46.7314 24.4599 46.8214 24.2272C46.3823 24.0186 46.8543 24.2601 46.5667 23.8781C46.514 23.8606 46.3011 23.8254 46.2242 23.7662C46.3011 23.393 46.2857 23.3425 46.5096 23.1361L46.1408 22.9846C47.3065 22.6356 46.2242 22.9363 47.0233 23.0329ZM33.665 23.1449C33.7089 22.7563 33.5311 22.5763 34.1041 22.8441C33.878 23.0922 33.9636 23.0088 33.665 23.1449ZM45.5766 22.9429C45.0037 22.8617 45.3834 23.0176 45.0124 22.7585C44.9137 22.6905 44.8522 22.5939 44.7754 22.4468C45.3 22.539 45.3417 22.5588 45.5766 22.9429ZM46.3867 22.7585C46.0618 22.629 46.2111 22.7322 46.0333 22.4731C46.4943 22.4687 46.2923 22.3656 46.3867 22.7585ZM49.6094 22.3348C49.9255 21.9858 49.3547 22.1768 49.9496 22.0736C49.706 22.4402 50.055 22.2163 49.6094 22.3348ZM36.1654 22.2843C36.9755 22.0099 36.6682 22.4907 36.666 22.5039L36.1654 22.2843ZM46.0508 22.0912C46.053 22.0912 45.9389 21.6543 46.5557 22.0912C46.356 22.2273 46.6831 22.1636 46.3296 22.1878C45.7874 22.2229 46.2703 22.1943 46.0508 22.0912ZM49.0123 21.6521L49.1571 21.9814C48.65 22.2931 48.8674 22.2843 48.3888 22.0736L49.0123 21.6521ZM35.2434 21.9814C35.2061 21.617 35.3927 21.8914 35.4322 21.9902C35.5574 22.2997 35.2544 22.0692 35.2434 21.9814ZM22.3439 22.0692L22.0564 21.7597C22.3769 21.876 22.2298 21.7114 22.3439 22.0692ZM33.7243 21.4633C33.3401 21.3272 33.496 21.5138 33.2238 21.0506C33.7397 21.156 33.5465 20.965 33.7243 21.4633ZM49.8135 21.0879L49.5764 20.8091L50.7312 20.8728L50.4941 21.4831L49.8135 21.0879ZM4.60823 20.9057C4.70922 20.7981 4.70483 20.7564 4.81898 20.6686C5.31511 20.28 5.25584 20.6357 5.26682 20.6401C4.99021 21.0704 5.35024 20.8859 4.60823 20.9057ZM4.23284 20.6884C4.2526 20.7037 4.28333 20.7213 4.30528 20.7367L4.98143 21.1977C4.79922 21.3009 3.51498 21.1955 3.90135 20.4381C4.11429 20.5698 3.99136 20.5062 4.16479 20.6357C4.18454 20.6511 4.21308 20.673 4.23284 20.6884ZM10.9241 20.471C11.3587 20.2361 11.2929 20.4557 11.4268 20.0693L11.8593 20.4908C11.8636 20.5018 11.879 20.5281 11.8834 20.5391L12.0107 20.9803C11.5848 21.123 11.8724 21.0418 11.4729 21.2262L10.9241 20.471ZM13.3016 21.1033C12.8823 21.0857 13.1457 21.2262 12.8976 20.9189C12.4037 20.3086 13.104 20.9255 12.8076 20.7235C12.452 20.4798 12.4037 20.8925 12.1139 20.2405L13.2401 20.4732C13.1369 20.6598 13.093 20.4623 13.115 20.7257L13.2555 21.0199C13.262 21.0023 13.2906 21.0725 13.3016 21.1033ZM40.6724 20.1944C40.8151 20.1198 40.6746 19.8827 41.0653 20.1944C40.4067 20.5962 40.758 20.2339 40.6724 20.1944ZM14.4102 19.9003C14.8909 19.9003 14.5419 19.5732 14.7856 20.1725C14.2916 20.1461 14.4826 20.302 14.4102 19.9003ZM16.1401 20.1966C15.6703 20.133 15.7822 20.2164 15.5693 19.841C16.1159 19.8959 15.9205 19.7576 16.1401 20.1966ZM10.8648 19.9573C10.4894 19.9376 10.7748 19.9595 10.5596 19.8234C10.8297 19.6566 11.0119 19.7378 11.2138 19.8586C11.1875 19.8717 11.2138 19.9793 10.8648 19.9573ZM15.3673 19.6368C15.3673 19.4217 15.6593 19.6259 15.5429 19.6961C15.1236 19.9398 15.3673 19.8388 15.3673 19.6368ZM16.4584 19.6017C16.0391 19.4919 16.3618 19.6895 16.1642 19.3097L16.4584 19.6017ZM39.2213 19.672L38.7098 19.481C39.3925 19.2307 38.8832 19.4568 39.0501 19.257C39.0742 19.2307 38.9337 18.9365 39.4606 19.189C39.5089 19.6368 39.6186 19.3558 39.2213 19.672ZM16.7635 19.189L17.1982 19.1209C17.2223 19.1165 17.2553 19.1144 17.2816 19.1122C17.7887 19.0726 17.5363 18.9475 17.9336 19.2395C17.8985 19.2988 17.9841 19.5468 17.4089 19.4327C16.1466 19.1824 17.5165 19.6939 16.7635 19.189ZM38.1105 19.0792C38.4705 18.7587 38.3278 19.0178 38.4024 19.0792C38.3432 19.11 38.5122 19.3339 38.1105 19.0792ZM16.061 19.0792C16.1686 19.0375 15.8393 18.8882 16.4342 19.0178C16.8096 19.0968 16.4913 19.0156 16.634 19.189C16.5945 19.2087 16.6779 19.3646 16.2652 19.2746C15.9403 19.2044 16.1774 19.2285 16.061 19.0792ZM36.4904 19.3031C36.3323 19.0353 36.3872 19.4524 36.5035 19.1363C36.565 18.9739 36.543 19.1056 36.5913 18.9409C36.8745 19.1165 36.7318 18.818 36.8394 19.3141L36.4904 19.3031ZM39.645 19.6851C40.0072 19.0551 39.5506 18.9168 39.5133 18.8817C40.0687 18.8224 39.8821 19.0046 40.5604 19.1275L41.0017 19.9683C40.545 19.8476 40.1872 19.6412 39.645 19.6851ZM18.0104 19.3075C18.2234 19.0002 18.1422 19.0946 18.0917 18.6907C18.7678 18.9278 17.9709 18.4338 18.7195 18.7433L18.4912 19.1319C18.3046 19.2856 18.2783 19.2483 18.0104 19.3075ZM39.1554 18.7565C39.1313 18.7741 39.1005 18.796 39.072 18.8136C39.0413 18.8356 38.9491 18.8795 38.9183 18.8948C38.7691 18.9739 38.7252 18.9936 38.5342 19.0617C38.8327 18.6446 38.5605 18.6402 39.3332 18.6029L39.1554 18.7565ZM29.3974 18.9629C29.0549 18.8663 29.0352 18.8443 28.8859 18.5326C29.685 18.7104 29.022 18.7851 29.7399 18.4887C29.483 18.987 29.7508 18.5743 29.3974 18.9629ZM42.2837 18.8268C41.7722 18.8641 41.8798 18.7324 41.7063 18.4184C42.0598 18.5524 42.0795 18.6292 42.2837 18.8268ZM40.4463 18.5919L40.3826 18.1945C41.0039 18.6402 40.1675 18.076 41.6449 18.2801C41.0082 18.7368 41.0983 18.3526 40.4463 18.5919ZM20.5504 18.8268C20.0938 18.6841 20.4077 18.7697 20.2518 18.6007L20.636 18.5194C19.9533 17.9113 21.4834 18.2933 21.7051 18.3833L21.3934 18.7038C21.4197 18.7126 21.4592 18.7236 21.4878 18.7324C21.5207 18.7433 21.5624 18.7477 21.591 18.7565L21.8895 18.8553C21.3956 19.1692 21.6414 18.9826 21.0795 18.8904C20.8665 18.8553 20.8402 18.9146 20.5504 18.8268ZM15.3893 18.3109C15.881 18.2472 15.7822 18.3789 16.1379 18.2318C16.2937 18.1682 16.0676 18.0914 16.353 18.1748C16.915 18.3416 16.4496 18.2011 16.6823 18.4075C16.2784 18.6687 16.5286 18.5085 15.9886 18.5941L15.6659 18.6643C15.6286 18.6731 15.6022 18.6885 15.5649 18.6951C15.2619 18.7609 15.5473 18.7631 15.1236 18.7346C15.2641 18.5787 15.3059 18.5304 15.3893 18.3109ZM38.6703 18.0979C39.4452 18.0365 38.903 18.1396 39.1423 18.4075C38.6 18.5238 38.7515 18.4031 38.6132 18.4075C37.8909 18.4316 39.0676 18.4843 38.1939 18.5194C38.2861 18.3548 38.4837 18.1133 38.6703 18.0979ZM37.4233 18.4953C37.4804 18.4294 37.6121 17.615 38.0534 18.2165L37.4233 18.4953ZM12.0985 18.526C11.9712 18.2428 11.9229 18.1901 11.8154 17.9399C12.0261 18.0343 12.0744 18.0431 12.1885 18.2011C12.3642 18.4426 12.329 18.6994 11.8615 18.6314C11.4026 18.5655 11.6551 18.4865 11.6046 18.4075C11.9251 18.3175 11.5958 18.368 12.0985 18.526ZM32.6684 18.0057C32.8791 17.874 32.5915 17.874 32.9625 17.9311C32.9669 17.9311 33.1513 18.0474 33.1601 18.0518C32.9208 18.1396 32.9516 18.1133 32.6684 18.0057ZM31.3183 17.7489L31.2853 17.9048C31.2766 17.9157 31.237 17.9421 31.2283 17.9509L31.0351 17.9772C32.1569 18.0255 31.3995 17.953 31.7134 18.2604L31.4302 18.4097C31.4149 18.3855 31.3709 18.4514 31.3468 18.4777C30.877 18.2714 31.6585 18.8421 31.1778 18.3548L30.8924 18.0189C30.8792 18.0101 30.8353 17.997 30.8243 17.9904C30.8068 17.9794 30.7277 17.975 30.6904 17.9618C30.7651 17.7686 31.1229 17.7401 31.3183 17.7489ZM47.8268 17.1013L48.178 16.84C47.9958 17.2242 48.3273 16.9476 47.8268 17.1013ZM16.6955 16.93C16.7064 16.8927 16.7416 16.8883 16.7657 16.8708C16.7372 16.8488 16.6955 16.8269 16.6757 16.8115C16.5681 16.7413 16.3135 16.5986 16.3376 16.4646C16.4057 16.098 17.4067 16.4185 17.5253 16.4427L17.1214 16.6205L17.0555 17.3647C16.6033 17.4855 16.5572 17.4328 16.3223 17.312C16.3069 17.1013 16.6516 17.0749 16.6955 16.93ZM15.8744 16.3988C15.6505 16.8137 15.7361 16.7237 15.3629 16.5261C15.5583 16.2802 15.5429 16.2737 15.8744 16.3988ZM11.9602 16.8752C11.879 16.6754 11.9229 16.8159 11.9076 16.6622L11.9032 16.5239C11.9163 16.1332 11.89 16.6095 11.9207 16.3856L12.5398 16.5986C12.1951 16.6337 12.272 16.772 11.9602 16.8752ZM44.4065 15.9378L45.0717 15.8895C44.8873 16.412 44.9685 16.401 44.3802 16.4976L44.4065 15.9378ZM36.756 15.8851L37.1972 16.0651C37.1819 16.0914 37.1687 16.131 37.1555 16.1441C36.6396 16.7391 36.9821 16.3154 36.835 16.3768C36.7274 16.1705 36.6528 16.5942 36.756 15.8851ZM33.2699 15.67C33.0899 16.0607 33.2435 15.9883 32.6947 16.0958L32.1986 16.1178C32.0471 15.7797 32.2205 15.8609 32.3522 15.637C32.5762 15.8566 32.4049 15.7578 32.8111 15.8851C32.8308 15.8653 32.855 15.828 32.8681 15.8192C32.8813 15.8083 32.9142 15.7731 32.9318 15.7622C33.226 15.5712 32.6464 15.6941 33.2699 15.67ZM42.8699 15.839C42.8194 15.4636 43.0213 15.7292 43.0828 15.8434C43.164 15.9992 42.8896 15.9949 42.8699 15.839ZM43.8138 15.6282L44.2792 15.7161C44.1014 16.0629 44.2419 15.9861 43.7589 16.0629L43.8138 15.6282ZM47.2077 15.6173C47.2033 15.626 47.2187 16.4317 46.3911 15.4877L47.2077 15.6173ZM37.8185 15.7622C38.1566 15.6282 37.9348 15.4109 38.7559 15.5316C38.69 15.7556 38.8064 15.8061 38.2971 15.997C38.24 15.8083 38.2334 15.9444 38.2861 15.7863C38.2927 15.7643 38.4222 15.6458 38.4507 15.6195L37.9853 15.7863C37.9744 15.8148 37.9656 15.8566 37.9568 15.8763L37.8822 16.0453C37.7526 16.2605 37.9436 16.0739 37.6451 16.2561L37.4453 15.839L37.7461 15.7775C37.7658 15.7731 37.8031 15.7687 37.8185 15.7622ZM19.3452 15.7687C18.6295 15.637 18.9303 15.7578 18.9434 15.4373C18.9917 15.4526 19.0927 15.479 19.1498 15.5229C19.4045 15.7117 19.1454 15.4526 19.3452 15.7687ZM15.2027 15.6173C15.4925 15.3516 15.2905 15.3319 15.8283 15.4329C15.7888 15.446 15.6198 15.5097 15.6132 15.5141L15.4398 15.6195C15.8283 15.6129 16.1927 15.6085 16.4891 15.839C16.2367 15.9246 16.1093 15.9751 15.8152 15.9027L15.2027 15.6173ZM12.0041 15.6875C12.2764 15.0926 12.5156 15.0136 13.0579 14.9477C12.6276 15.6678 12.6869 15.0114 12.5661 15.4219C12.4432 15.8346 12.373 15.7029 12.0041 15.6875ZM19.9006 15.5031C20.2804 14.7611 19.7052 14.9499 20.6206 15.0706C20.3462 15.5075 20.4977 15.446 19.9006 15.5031ZM44.9927 15.1343L45.5569 14.9455C46.3625 14.7699 45.6403 14.8511 45.952 15.1255C44.8873 15.2046 45.57 15.389 44.7973 15.5185C44.929 15.0684 44.738 15.4131 44.9927 15.1343ZM30.607 15.075C30.7146 15.2968 30.8309 15.3033 30.7387 15.5382C30.5477 15.2397 30.6048 15.2528 29.955 15.2902C29.9857 15.2726 30.0318 15.2594 30.0516 15.2485L30.3721 14.8621C30.9275 14.9455 30.8397 15.0904 31.1909 14.7545L31.349 15.1738C30.9473 15.1782 30.8968 15.1211 30.607 15.075ZM44.9927 15.1343C44.7205 15.0992 44.6261 15.2287 44.4022 14.8357C44.6261 14.7238 44.4065 14.6228 44.7754 14.8094C45.1793 15.0136 45.1178 14.8445 44.9927 15.1343ZM36.2094 14.7238C36.1545 14.254 36.3586 14.6404 36.3894 14.6996C36.4882 14.8928 36.2137 14.7523 36.2094 14.7238ZM22.7259 14.9082C22.7918 14.5833 22.7149 14.6184 23.0355 14.715C22.8423 15.0267 23.1123 14.8665 22.7259 14.9082ZM32.0515 14.5745L32.3852 14.8753C32.1086 15.1826 32.7737 14.8445 32.1898 15.0662C32.1459 15.0838 32.1042 15.097 31.9 15.0794L31.349 14.9455L31.2744 14.2298L31.9571 14.063C31.9461 14.5679 31.9022 14.1091 32.0515 14.5745ZM27.0879 14.4999C27.3689 14.2738 26.9672 14.4033 27.5665 14.3001C27.2965 14.5745 27.4414 14.6008 27.0879 14.4999ZM47.2868 14.5965C47.2933 14.5591 47.4207 14.2518 47.5853 14.3967C47.6161 14.4252 47.8422 14.3703 47.5721 14.6096C47.1924 14.9433 47.3087 14.6052 47.2868 14.5965ZM25.8696 14.3879C26.111 14.2079 25.6808 14.2913 26.2515 14.2803C26.4491 14.2781 26.4294 14.0981 26.5062 14.4055C26.7148 14.1815 26.6313 14.1596 27.0594 14.1837C26.8443 14.5723 27.1099 14.5218 26.6072 14.6623C26.2428 14.7633 26.302 14.6799 26.4206 14.524C25.4964 14.5789 26.0693 14.5833 25.8696 14.3879ZM10.9877 13.8281C11.3368 14.1662 11.4048 14.1245 10.9768 14.3879C10.7792 13.962 10.8253 14.2255 10.9877 13.8281ZM33.1623 14.1442L32.8111 14.2255C32.8045 14.2013 32.7935 14.1684 32.7913 14.1552L32.743 13.6569C32.9384 13.9137 32.9472 13.7688 33.2984 14.1267C33.2523 14.1333 33.193 14.1376 33.1623 14.1442ZM34.6858 13.8654C34.9866 13.5822 34.9119 13.6722 35.3247 13.6437C35.3027 13.6832 35.2786 13.7293 35.2588 13.7622L35.0063 14.1596L34.6858 13.8654ZM20.1772 13.6064C20.4911 13.4834 20.377 13.5559 20.6075 13.8215L20.1772 13.6064ZM35.8669 13.411L36.2094 13.6196C35.3225 13.861 35.9591 14.2298 35.3642 13.9423L35.8669 13.411ZM40.2838 13.7293C39.7921 13.6679 39.8667 13.714 39.7547 13.2749C40.1521 13.3605 40.1279 13.3364 40.2838 13.7293ZM38.7734 13.5032C38.7581 13.4417 38.4837 13.2178 39.2696 13.1893L38.8349 13.5274C38.8305 13.5076 38.7932 13.512 38.7734 13.5032ZM10.9877 13.8281C10.5948 13.4417 10.3818 13.5998 10.5487 13.1498C11.0031 13.3451 10.8275 13.2881 10.9877 13.8281ZM34.1063 13.1981L34.2643 13.1212C34.2885 13.1103 34.4553 12.9961 34.519 12.9785L34.3763 13.5274L33.8121 13.2683C34.3829 12.9061 33.6628 13.3583 34.1063 13.1981ZM12.0656 13.2727C12.1315 12.8622 12.4915 12.9719 12.7944 13.1607C12.5749 13.3012 12.3203 13.3803 12.0656 13.2727ZM23.266 13.0488C23.2791 13.0422 23.1057 12.6053 23.7884 13.1607L24.5195 13.9357L23.6677 13.8018C23.6633 13.3122 23.5052 13.5888 24.0102 13.4944L23.266 13.0488ZM21.2112 13.0488C21.2375 13.0356 21.2682 13.0005 21.2792 12.9961C21.2902 12.9939 21.3407 12.9763 21.3495 12.9741C21.3605 12.9719 21.4131 13.0202 21.4219 12.9961C21.4307 12.9676 21.468 13.0334 21.4922 13.0488C21.468 13.062 21.4329 13.0949 21.4219 13.0971C20.8621 13.242 21.389 13.1607 21.2112 13.0488ZM34.6353 13.0993C34.7275 12.9544 34.3017 12.9632 34.9734 12.9741C35.0349 13.4483 35.1776 13.1476 34.8944 13.3934C34.6287 13.6283 34.6266 13.3978 34.6068 13.3912L34.6353 13.0993ZM36.1435 12.568C36.1391 12.6866 36.0952 13.051 36.093 13.0773C36.093 13.0883 36.0996 13.1168 36.0996 13.1256L36.1106 13.2134C36.1106 13.2178 36.1106 13.2749 36.1106 13.2617C36.1106 13.2486 36.1084 13.299 36.1018 13.3166L35.7374 12.9215C35.4871 13.0905 35.4981 13.1585 35.1249 13.1629C35.3466 12.9017 35.2764 12.9807 35.5903 12.8161L35.744 12.7305C35.7703 12.7173 35.8054 12.6975 35.8296 12.6844C36.0315 12.5878 35.891 12.6405 36.1435 12.568ZM13.0293 12.838C12.9481 12.7371 12.9108 12.7019 12.8449 12.6405C12.9745 12.4473 13.3696 12.6097 13.6177 12.8534C13.4706 13.1015 13.5979 12.9083 13.3016 13.152C13.1962 13.0641 13.2577 13.13 13.1237 12.9698C13.1084 12.9522 13.0886 12.9215 13.0754 12.9039C13.0601 12.8863 13.0403 12.8556 13.0293 12.838ZM28.3305 12.2958L28.5456 12.4341C28.9539 12.9434 28.5544 12.0916 28.6137 12.5702C28.6159 12.5856 28.449 12.7546 28.4205 12.781C28.0122 12.3353 28.2514 12.5373 28.3305 12.2958ZM48.0222 11.7228C48.1956 11.6043 48.2768 11.5538 48.5029 11.4396C48.4568 11.5582 48.4064 11.6701 48.3515 11.7843C48.3339 11.8194 48.2724 11.905 48.2615 11.9314C48.1846 12.1202 48.1495 11.9072 48.2768 12.1575C48.0924 12.0763 48.0902 12.0653 47.9783 11.9621L47.7434 12.2892C47.7434 12.2892 47.7324 12.3968 47.6863 12.5065C47.5414 12.41 47.5173 12.7371 47.4887 12.2826C47.4712 12.0214 47.9278 11.7953 48.0222 11.7228ZM34.7714 11.8216C34.7495 11.8348 34.7122 11.8502 34.699 11.8524C34.6858 11.8567 34.6441 11.8721 34.6287 11.8765C34.1743 11.9863 34.4926 11.6592 34.1524 12.1487L34.2753 11.5867L34.7714 11.8216ZM48.0222 11.7228C47.8795 11.736 47.717 11.758 47.6226 11.7843L46.4482 11.6482C46.1211 11.556 46.3384 11.657 46.2045 11.4857L46.9553 11.3277C46.9728 11.3584 46.9904 11.3979 47.0036 11.4177L47.1989 11.7667C47.6336 11.4221 47.3197 11.4748 47.8092 11.4089C47.9673 11.5626 47.9124 11.3123 48.0222 11.7228ZM12.1359 11.6504C11.6266 11.5187 11.6551 11.5867 11.5827 11.1499C11.9295 11.2596 11.6244 11.0599 11.9076 11.3013C12.1468 11.5055 11.9756 11.3343 12.1359 11.6504ZM48.964 11.2618C48.4393 11.5318 48.9091 11.3848 48.4129 11.3277C48.178 11.3013 48.2702 11.3452 48.1056 11.2618C48.1451 11.2025 48.391 11.0796 48.5008 11.0796C49.3613 11.0708 48.841 11.1784 48.964 11.2618ZM20.9104 11.343C20.8555 11.0818 20.557 11.0247 21.4922 10.9172C21.3473 11.1213 21.5097 11.0028 21.1914 11.2267C20.996 11.365 21.2046 11.286 20.9104 11.343ZM40.5011 11.1367C40.5011 11.1367 40.1038 11.0642 40.6592 10.6252L41.0258 10.5725C41.0565 10.735 41.0785 10.8118 40.8941 11.062C40.567 11.5077 40.5055 11.1367 40.5011 11.1367ZM42.321 9.23996C42.4396 9.39583 42.4879 9.39144 42.321 9.57145C42.0225 9.26631 42.2683 9.31899 42.321 9.23996ZM41.9566 9.1302C41.9742 9.49901 41.961 9.25753 41.8798 9.38924C41.8534 9.43095 41.5154 9.70756 41.4693 9.75366C41.3068 9.43973 41.4934 9.50779 41.3441 9.25313C41.3639 9.24874 41.3968 9.25533 41.4078 9.25313C41.4166 9.25313 41.4583 9.25533 41.4693 9.25313L41.7195 9.12361C41.7349 9.10605 41.7524 9.05775 41.7634 9.04019C41.7766 9.02043 41.792 8.9897 41.8007 8.93921C41.8095 8.88433 41.8205 8.86676 41.8337 8.82944C41.8886 8.93701 41.9412 8.79432 41.9566 9.1302ZM23.0442 9.16093C22.9257 9.44193 23.1233 9.22021 22.8379 9.43315C22.8225 9.00068 22.6403 9.24655 23.0442 9.16093ZM10.9131 9.409C10.3752 9.34753 10.7089 9.52755 10.6014 9.128C10.9811 9.29485 10.7331 9.02483 10.9131 9.409ZM15.9579 9.11483C16.3881 9.52096 16.3969 9.39802 16.5089 9.42437L16.656 9.47705C16.1752 9.67024 16.241 9.47047 15.8349 9.56047C15.8239 9.56267 15.6944 9.62194 15.6176 9.64609C15.3102 9.26631 15.1632 9.49681 15.1171 9.39363C15.0995 9.35631 15.0446 9.37827 15.0095 9.36509C15.6132 8.87335 14.9568 9.56706 15.5517 8.93043L15.431 8.74383C15.8613 8.6648 15.7493 8.72188 16.0852 8.95897L15.9579 9.11483ZM12.9657 8.00841L13.2116 7.91621L13.3806 8.18403L13.5057 8.39478L13.6506 8.50454L13.3499 8.67138L13.0579 8.47161C13.0601 8.49576 12.7879 8.38161 13.1369 8.72846C13.2181 8.80749 13.475 8.757 13.6528 9.14118C13.2994 9.19606 13.8789 9.24655 13.295 9.1763C12.7044 9.10386 12.9328 8.92823 12.9306 8.69553C12.5486 9.05775 12.823 8.70212 12.733 8.93262C12.5793 9.32338 12.8559 8.83603 12.7681 9.07971C12.6935 9.28826 12.8581 9.11922 12.3269 9.36509C12.3269 8.44527 12.4432 8.73505 12.5705 8.15988L12.9657 8.00841ZM19.4659 8.25867C19.0422 8.13354 19.2969 8.3399 19.1235 7.99524C19.512 8.09622 19.3166 7.87669 19.4659 8.25867ZM39.2652 8.1994C39.4057 7.94035 39.2257 7.93157 39.5616 7.8723C39.7196 8.31575 39.7767 8.08524 39.2652 8.1994ZM23.0574 7.91401C23.2835 7.67472 23.356 7.70985 23.7072 7.72083L23.7336 8.24769C23.1803 7.85474 23.4108 8.12476 23.0574 7.91401ZM39.0303 7.58033C39.3179 7.98206 39.3508 7.83937 38.7866 7.94474L39.0303 7.58033ZM30.8287 6.89101C31.1931 7.06444 31.0351 6.78783 31.1141 7.25982C30.7782 7.10395 30.9538 7.32128 30.8287 6.89101ZM19.7711 7.13249C19.8325 6.74173 19.6393 7.08858 20.0499 6.7066L20.2694 7.24664L19.7711 7.13249ZM41.4693 6.81198C41.7459 7.04029 41.6295 6.9437 41.7612 7.56716C41.3134 7.41129 40.7602 6.97223 41.4693 6.81198ZM14.116 6.90857C14.2016 6.87345 13.9579 6.62538 14.4958 6.90857C14.3246 7.05785 14.6187 6.97662 14.2829 7.00736L14.116 6.90857ZM27.808 6.64953C27.5358 6.49147 27.6675 6.60562 27.5446 6.34877C27.8761 6.46732 27.7795 6.28291 27.808 6.64953ZM26.2186 6.46073C26.155 6.02826 26.3481 6.35316 26.3942 6.45195C26.5282 6.73075 26.223 6.48708 26.2186 6.46073ZM17.7031 5.37187C18.2783 5.50798 17.9512 5.38285 18.1202 5.72312C17.6482 5.56725 17.7953 5.71434 17.7031 5.37187ZM35.3708 5.30382C34.9383 5.13039 35.3225 5.09966 35.3708 5.04477C35.7198 5.55628 35.4717 5.13917 35.3708 5.30382ZM37.5485 5.42236C37.3202 5.30601 37.3092 5.24454 37.2521 5.21601L36.9316 5.12161C36.9821 4.77914 37.5441 4.80768 37.5485 5.42236ZM38.6395 5.1699L38.2268 4.83183C38.1983 4.80988 37.9919 4.69792 37.9173 4.63645L38.2532 4.39497C38.4068 4.73304 38.4793 4.81866 38.6395 5.1699ZM31.8407 3.42685C31.709 3.75175 31.9329 3.62003 31.5905 3.64857C31.6432 3.32148 31.4566 3.51247 31.8407 3.42685ZM31.8407 3.42685C31.8232 3.05804 31.8803 3.17878 31.9571 3.06243C32.4576 3.15902 32.1854 2.94828 32.4444 3.55418L31.8407 3.42685ZM30.8594 3.58052L30.3809 2.79241L31.0307 3.22708C31.0395 3.23366 31.068 3.25562 31.0746 3.26001L31.1492 3.31269C31.1536 3.30172 31.1734 3.32587 31.1822 3.33465L30.8594 3.58052ZM27.5533 0.540049C27.808 0.799093 27.6565 0.614689 27.7839 1.01862C27.347 0.96813 27.4941 1.03618 27.1867 0.880319C27.2592 0.711282 27.1582 0.73982 27.5533 0.540049ZM23.4745 33.0939C24.6995 33.7635 25.031 38.3055 24.9651 39.9608C24.9454 40.4898 24.919 40.8894 24.8685 41.2275C24.5414 43.4359 23.5535 45.7432 21.3605 46.393H35.3225C32.653 45.0429 31.6673 43.4579 31.3578 41.8246C31.0746 40.334 31.3468 38.2111 31.4807 36.6349C31.5597 35.7173 31.7068 34.8084 32.1437 33.9633C32.6749 32.9359 33.3599 32.207 34.5936 31.7636C34.8527 31.6714 35.52 31.5089 35.7944 31.6604C36.1062 31.836 35.8471 31.9985 35.8427 32.0051C35.744 32.1565 35.7308 31.8185 35.632 32.4134L36.2796 32.5868C36.0513 33.1181 36.1106 32.7734 35.7966 33.1444C36.4882 33.5901 35.8537 33.0478 36.2313 33.724L36.7121 33.5879C37.0062 32.9732 36.6199 33.5505 37.1906 33.0281L37.3268 33.23C37.3377 33.2432 37.375 33.3157 37.3838 33.2981C37.3926 33.2805 37.4233 33.342 37.4431 33.3661C37.8734 33.1291 37.4716 33.2059 37.8712 33.0566C37.9414 33.691 37.8953 33.2761 38.1214 33.522C38.2993 33.7152 38.2795 33.7262 38.42 33.9018C39.2542 33.5703 39.094 33.5791 39.3618 32.7339C38.4068 32.4573 38.7822 32.6373 38.1039 32.207C37.3465 31.7263 37.3158 31.3355 38.2905 31.364L41.2256 31.4453L42.3254 31.4914C42.9664 31.476 42.5691 31.3772 43.0411 31.3816C43.2101 31.3816 43.3813 31.4606 43.6777 31.5045L43.9938 31.2674C43.9082 31.3926 43.7919 31.555 43.6865 31.6867C44.5492 31.7811 44.0509 31.8009 44.2682 31.2674L44.8061 31.3355C44.8105 31.3487 45.1025 31.9897 45.7918 31.7372C45.9169 31.4453 45.8379 31.3201 45.7654 31.0611C46.1979 31.0457 46.0157 31.1335 46.4043 31.0479L47.559 30.9338C48.121 30.8964 47.3109 30.8438 47.717 30.9118L47.6951 31.3597C47.6709 31.3706 47.6314 31.3838 47.6139 31.3926L47.2033 31.5814C47.2846 32.1961 47.4273 31.9304 47.7785 31.8382C47.8466 31.9502 47.8202 31.9414 47.9124 32.0512L48.2966 32.3695L48.7203 32.1982L48.8652 32.7295C49.0737 32.3892 48.9464 32.5561 48.9793 32.0182C49.6752 32.1082 49.1154 31.9019 49.5501 32.3409L49.6203 32.1434C50.6938 32.6285 49.7543 32.9029 51.5632 33.0281C51.2756 32.3234 51.2163 32.7624 50.7334 32.2861C51.1461 31.7263 51.3678 32.0512 51.5259 32.0819C52.0417 32.1785 51.5939 32.1039 51.8661 32.0226L52.2327 31.9173C52.3425 31.3992 52.0527 31.6143 51.3832 30.7472C51.157 30.4508 51.0956 30.6879 51.2624 30.4991C51.6224 30.1896 51.6971 30.6396 53.0626 30.1018C53.1416 30.6286 53.0428 30.6879 53.5389 30.8723C53.6421 30.7274 53.6531 30.8635 53.6904 30.5759C53.7299 30.2927 53.5609 30.2225 53.4445 29.9305C53.978 30.0557 53.6092 30.2554 54.1492 30.4113C54.3205 30.1171 54.1602 30.1676 54.2085 29.8471C54.439 30.1961 54.551 30.2247 54.7178 30.7055L55.0866 30.4201C55.7408 29.7812 55.1481 29.7527 54.9659 29.4937C54.8056 29.2653 54.9373 29.3005 54.7595 29.0348C54.7485 29.0524 54.7398 29.0831 54.7376 29.0897C54.529 29.61 54.2063 28.7451 54.5532 29.4739C53.9034 29.2719 54.4697 29.3246 53.8572 29.632C53.7541 29.4849 53.6443 29.3619 53.4862 29.1775L53.0011 28.756C53.4862 28.8307 53.1723 28.8153 53.2579 28.6616C53.3875 28.4729 53.3436 28.5431 53.4028 28.4729C53.4116 28.4619 53.4511 28.4487 53.4577 28.4136C53.4643 28.3785 53.4972 28.3763 53.517 28.3565C53.3216 27.5772 53.4884 27.744 53.6619 27.6496L53.7563 27.8165C54.0856 28.6726 53.4819 27.9482 54.417 28.519L54.6366 28.0887C55.5213 28.3872 55.4466 28.8109 55.4752 28.8943L56.2874 29.7593C56.3028 29.7395 56.3247 29.7154 56.3379 29.6956C56.5179 29.4146 56.4696 29.1336 56.4696 28.7912C56.204 28.5541 56.0569 28.4619 55.8528 28.1216L56.0328 28.0865C56.1513 28.0579 56.0525 28.4092 56.1842 28.0426C56.193 28.0118 56.2391 28.0228 56.2852 28.0031L56.0372 27.452C55.5674 27.3774 55.2095 27.362 55.451 26.7803C55.1481 26.451 55.2864 26.4795 55.1393 25.9549L54.7793 25.99C54.7441 25.5531 54.7002 25.7068 54.6497 25.3731H54.1492C54.1317 25.349 54.1119 25.3116 54.1031 25.2963C54.0965 25.2809 54.0724 25.2392 54.0636 25.2216L53.9516 24.9911C53.4555 24.7343 53.9912 24.8594 53.5894 24.754L53.2931 24.6772C53.1372 24.5652 53.2448 24.6509 53.124 24.4708C53.0472 24.3589 52.8935 23.9967 52.8584 23.9462C52.6213 23.6103 52.7706 23.7947 52.3381 23.6542C52.371 23.5357 52.3337 22.9978 52.2876 22.921L52.1669 22.4841C52.1691 22.1768 52.2723 22.2317 52 21.9814C52.3425 21.8541 51.9891 22.1482 52.2503 21.9068C52.2788 21.8804 52.4018 21.6345 52.4567 21.5314C52.1537 21.6697 52.101 21.6631 51.8332 21.7597C51.5654 21.4545 51.539 21.437 51.5237 21.0352C51.0407 20.8398 50.9529 20.594 50.8848 20.3349C50.5709 20.0737 50.7795 20.2691 50.6938 20.0473C49.4359 19.5205 49.9606 18.5655 49.1506 18.0365C48.7598 18.2626 48.9288 18.6841 48.8279 18.4294C48.8213 18.4119 48.8015 18.4733 48.7839 18.4953C48.3976 17.9113 49.0013 17.6523 48.8937 16.8444C48.672 16.5173 48.661 16.6271 48.4612 16.3637L48.279 16.0827C48.0902 15.8236 48.2395 16.0212 48.0749 15.839C48.2241 15.6919 48.2615 15.7073 48.4459 15.637C48.4744 15.2792 48.2856 15.6743 48.3844 15.3297C48.4876 14.9675 49.0627 14.827 49.6094 15.3538C49.6116 15.356 49.8289 15.4965 49.8487 15.5075C49.4952 15.7051 49.5962 15.6941 49.5281 15.839C50.0353 15.997 49.9343 15.8478 50.3009 15.7973C50.9814 15.6985 50.8673 16.0212 51.0012 15.5295C51.179 14.8753 51.2383 15.6392 51.1702 14.9806C51.1044 14.366 50.6258 14.7282 50.9792 14.164C50.4765 14.153 50.3316 14.164 50.0682 13.7798C49.6862 13.2244 50.0836 13.299 49.3613 13.2903C49.4272 12.7766 49.4689 12.9171 49.1132 12.6031C49.4601 12.4407 49.7257 12.7722 49.8069 12.0894C49.8509 11.7206 49.6379 12.0609 49.8355 11.7865C49.9431 11.6394 49.976 11.7382 50.0814 11.2618C49.8443 11.0028 49.5984 10.8689 49.2186 10.7964C47.8992 10.7547 49.3767 10.7679 48.7159 10.0983C48.4261 9.6439 48.6961 9.83928 48.1649 9.48144C47.5458 9.05995 48.2856 9.58243 47.4273 8.72627C46.8697 8.77456 47.2121 8.63406 47.1002 8.92604L45.9235 8.10281C45.1683 8.45625 45.9169 8.33331 45.3703 8.55064C45.1332 8.15988 45.3988 8.14891 45.0212 8.06109L45.1507 8.59894C44.85 8.47381 44.648 8.30038 44.4087 8.06109C44.266 8.25428 44.4592 8.15769 44.029 8.22355C43.9258 8.11598 43.9872 8.19062 43.8797 8.03475C43.8753 8.02597 43.8358 7.93596 43.7699 7.8262L42.9708 7.77351C43.3682 7.46178 42.9599 7.63082 42.8325 7.06224C42.804 7.08419 42.7733 7.11932 42.7513 7.13688L42.5076 7.29933C42.4418 7.33007 42.2969 7.33885 42.2157 7.34763L42.1432 6.99419C41.6866 6.97443 41.9478 7.04468 41.7195 6.90857C41.7481 6.51781 41.6932 6.57708 41.4561 6.29389C41.0434 6.14242 41.2585 6.16217 41.1026 5.7297C40.679 6.23023 41.2344 6.52 40.3694 6.84491C40.2553 6.70221 40.308 6.80759 40.2114 6.57489C39.5769 5.02062 39.836 6.47829 39.3311 5.18088C39.072 4.5201 38.6571 4.12934 38.3366 3.64638C37.3531 3.84834 37.6012 3.80224 37.0545 3.13488C36.7779 2.7968 36.4355 2.54215 35.981 2.30286C34.2138 2.27432 34.7583 2.19968 34.1699 3.18756C34.0711 3.12609 34.0053 3.10195 33.8933 3.02072C33.3709 2.63655 33.4674 1.59159 32.0625 2.07675L31.7068 1.45109C31.2107 1.49719 31.4324 1.62672 31.0395 1.50378C30.8112 1.42914 30.8814 1.34791 30.5763 1.25791C30.135 1.12839 29.6213 1.23815 29.1537 1.22717C29.134 1.20303 29.112 1.1679 29.1032 1.15034L29.0242 0.985692C29.0132 0.959349 29.0044 0.928615 28.9935 0.900076C28.6246 0.212952 28.6268 -0.153661 27.6302 0.15807C26.9101 0.38638 26.965 0.482972 26.8838 0.992278L26.8355 1.1196C26.1747 1.12839 26.7191 1.19644 26.3459 0.998864C26.2142 0.928615 25.7203 0.417113 25.0244 1.0735C24.8334 0.636642 24.728 0.69811 24.1309 0.689329C22.1727 0.6564 22.1508 1.73428 21.7644 2.03723C21.3275 2.3797 20.4758 2.07675 19.7974 2.69582C19.4352 3.02292 19.6064 3.1239 19.073 3.18537C18.4758 3.25562 18.8337 3.27537 18.3002 3.45319C17.1916 2.7529 17.0094 3.19854 16.3552 3.67711C15.9666 3.9625 16.0764 4.02177 15.7405 4.32253C14.6078 4.30496 15.4464 4.14032 13.857 4.96135C12.5639 5.62872 13.5408 6.35975 12.7615 6.60782C12.6144 6.65392 12.7813 6.59684 12.5661 6.65611C11.6507 6.91077 12.351 6.86686 11.5914 7.10176C10.4433 7.45739 11.0514 8.16427 10.1557 9.27509C9.6069 9.95563 10.3884 9.36948 9.3698 10.2696L9.59811 10.8162C9.24687 11.0994 9.42469 10.7459 9.18979 11.1872C9.08003 11.3979 9.09539 11.5845 9.02075 11.8041C8.84733 12.3134 8.23045 12.5439 8.23045 12.5439C8.21509 12.5197 8.17118 12.5812 8.14484 12.6031C8.2085 13.1915 8.32485 13.2025 8.41266 13.6349C7.72554 14.2035 8.2085 14.4494 7.70797 14.9499C7.4621 15.1914 7.47527 15.345 7.76505 15.569C7.22282 15.4658 7.61797 15.1826 6.87157 15.1694C6.32494 15.1606 5.80466 16.1793 5.49732 16.5832C5.02095 16.4976 5.29536 16.2912 4.76629 16.1397C4.24821 16.5547 4.15381 17.1232 4.53359 17.6479C4.26138 17.7708 4.13186 17.874 3.86184 18.0606L4.10112 18.8553C3.84866 19.1495 3.29106 19.6698 3.21423 19.8849C2.9464 20.6225 3.35912 20.9913 3.18349 21.6367C3.0869 21.9946 2.99031 21.9397 2.93982 22.427C2.90469 22.7541 2.92884 22.921 2.81908 23.2173C2.64126 23.6893 2.49198 23.8079 2.39758 24.3282C2.3427 24.6267 2.16488 24.6048 1.91023 24.7431C1.68192 24.8682 1.60728 25.0197 1.44702 25.2941C1.0387 25.9944 1.20554 25.6541 0.645744 26.0251C-0.26969 26.631 0.588667 27.4608 0.854296 27.9701C0.636963 28.2006 0.874053 27.9943 0.643549 28.1567C0.101313 28.3872 -0.107238 28.7012 0.0552123 29.0919C0.290108 29.6561 0.762094 29.3751 1.60069 29.4476C2.32294 29.5112 2.11219 29.6715 2.41514 30.1413C3.70158 30.2247 3.21862 29.6539 3.74988 28.8285C3.84866 29.4717 3.93428 29.7856 4.74434 29.7483C5.32829 29.07 5.14169 28.8395 5.35682 27.9767C5.9276 28.1414 6.17567 28.6704 6.81669 27.6935C7.43356 27.9262 7.22721 28.1194 8.21509 27.8099C9.13272 27.5223 11.0185 26.5695 11.6683 26.4905C11.6705 26.5608 11.6573 26.8879 11.6573 26.8944C11.7407 27.4016 11.699 27.092 11.8395 27.2523C12.5552 27.0854 12.2149 26.8835 12.3664 26.4949L12.4871 27.5245C13.0711 27.5969 12.9986 27.4455 13.2818 27.2106C13.554 26.9866 13.6528 27.0876 13.8592 26.8352C14.0062 27.3708 14.2148 28.1831 14.8031 28.3345C14.9195 28.3653 15.8283 28.3126 15.8327 28.3104C16.0808 28.2138 15.9644 28.1567 16.094 28.0031C16.6384 27.3576 16.4145 28.3411 17.016 28.9448C18.208 28.8373 17.3167 28.8351 18.0565 28.4268C18.2673 28.508 18.331 28.4443 18.4715 28.9426C18.6624 29.6276 18.6405 30.1588 19.8325 30.0754C20.1026 29.7768 20.1201 29.7988 20.1662 29.3444L20.5372 29.5727L20.6184 28.9514C21.0641 29.1863 20.9741 28.9207 21.1212 29.3488C21.0926 29.3597 21.0531 29.3663 21.0334 29.3729C20.7326 29.4585 20.5877 29.3795 20.3901 29.8186C20.2365 30.1632 20.2321 30.2818 20.3835 30.5672C20.4406 30.6747 20.5416 31.1643 20.535 31.2718C20.5109 31.656 20.6667 31.7153 20.827 31.9173C20.7524 31.9853 21.2704 32.4375 21.8171 32.6658C22.4778 32.9403 23.2177 32.9973 23.4745 33.0939Z" fill="white"/>
</g>
<path d="M63.6655 0L63.6655 47.6311" stroke="white" stroke-width="1.99903"/>
</svg>
